/* XPM */
static char *Qm9hcm1vZGlmaWU_[] = {
/* columns rows colors chars-per-pixel */
"32 32 154 2 ",
"   c #5E0A22",
".  c #591927",
"X  c #691F2E",
"o  c #721824",
"O  c #7E1C2B",
"+  c #641C32",
"@  c #771E34",
"#  c #5D3639",
"$  c #7F2839",
"%  c #6C3B3F",
"&  c #6D353E",
"*  c #692939",
"=  c #493F40",
"-  c #523740",
";  c #5C3544",
":  c #643D42",
">  c #7E3C4C",
",  c #5F4A51",
"<  c #4C5B56",
"1  c #555555",
"2  c #5D5C5C",
"3  c #6B4C54",
"4  c #6C5C5C",
"5  c #715355",
"6  c #615F62",
"7  c #6B5E67",
"8  c #576E68",
"9  c #5F6B69",
"0  c #656565",
"q  c #616E65",
"w  c #6D6669",
"e  c #6C6C6C",
"r  c #766166",
"t  c #75636B",
"y  c #706C6D",
"u  c #6A716A",
"i  c #746B72",
"p  c #7B6F73",
"a  c #6D7373",
"s  c #6D7872",
"d  c #737373",
"f  c #7A7374",
"g  c #727874",
"h  c #797876",
"j  c #757578",
"k  c #747D7C",
"l  c #7C7C7C",
"z  c #891329",
"x  c #981630",
"c  c #812436",
"v  c #8D2B36",
"b  c #8A2334",
"n  c #813037",
"m  c #9B3435",
"M  c #B9242A",
"N  c #A42F37",
"B  c #A52D3C",
"V  c #A6343B",
"C  c #C71632",
"Z  c #90413D",
"A  c #984B3B",
"S  c #8F3942",
"D  c #813248",
"F  c #A42D40",
"G  c #B93D47",
"H  c #864354",
"J  c #BF4142",
"K  c #B54E47",
"L  c #BC4D46",
"P  c #AF5B43",
"I  c #B64C58",
"U  c #BF5D50",
"Y  c #BD674E",
"T  c #86656E",
"R  c #996D6A",
"E  c #956C74",
"W  c #847975",
"Q  c #86777C",
"!  c #857F7F",
"~  c #8E7A79",
"^  c #C35848",
"/  c #D3735A",
"(  c #DA7360",
")  c #77837F",
"_  c #7E7F84",
"`  c #857C81",
"'  c #887E81",
"]  c #758481",
"[  c #7D8483",
"{  c #7E8C8C",
"}  c #838484",
"|  c #8C8385",
" . c #8B8986",
".. c #8C8489",
"X. c #838B8B",
"o. c #8C8C8C",
"O. c #938C8D",
"+. c #8E908F",
"@. c #84958D",
"#. c #93938D",
"$. c #948E93",
"%. c #869791",
"&. c #8E9293",
"*. c #8A9996",
"=. c #949494",
"-. c #9B9394",
";. c #989399",
":. c #959B9B",
">. c #9B9B9B",
",. c #A4858D",
"<. c #A29A9C",
"1. c #A1949B",
"2. c #96A199",
"3. c #9AA39E",
"4. c #A4A09F",
"5. c #A39EA1",
"6. c #AD9FA3",
"7. c #99A6A0",
"8. c #95A8A2",
"9. c #9CA6A8",
"0. c #9EABAA",
"q. c #9BAAA5",
"w. c #A4A4A4",
"e. c #A7A9A6",
"r. c #A6A6A9",
"t. c #A8A6A9",
"y. c #A7A8AD",
"u. c #ABABAB",
"i. c #B1A5A7",
"p. c #B3AAAD",
"a. c #A5B0AA",
"s. c #B2B5AE",
"d. c #A7AEB6",
"f. c #B7ACB4",
"g. c #BBABB2",
"h. c #A3B3B0",
"j. c #ACBCB6",
"k. c #B3B3B3",
"l. c #B9B0B1",
"z. c #B4B8B7",
"x. c #B6B7B9",
"c. c #B4BDBA",
"v. c #BCBBBC",
"b. c #BBB5B9",
"n. c #C0B3BA",
"m. c #B9BDC0",
"M. c #C4C4C4",
"N. c #C8C4C5",
"B. c #C1C8C1",
"V. c #C7C6CC",
"C. c #CECECE",
"Z. c #C9C9C9",
"A. c #D2CFD8",
"S. c #D1D1D1",
/* pixels */
">.>.e.w...z.z.o.} -.d d l w.M.u.l ;.z.>.l d  .d } } o.} l 1 0 =.",
";.w.&...d M.v.w.u.>.l l } >.u.o.l l >.>.o.e.3.$.o.l d l >.d w.z.",
"} o.o.3.l x.o.d } >.>.d o.e.>.l <.o.} =.} k.>.o.y 1 } k.3.} C.k.",
"e  .>.e.h v.+.y o.>.:.o.u.w.o.l k.b.3.>.o.5.} a 1 &.z.;.-.! x.M.",
"u.=.} h h z.o.y o.o.l u.x.} d l u.w.7.$.} } d 2 l u.=. .o.} k.S.",
"h >.z.;.o.w.o.;.w.o.o.4.>.o.l d e.+.=.w l k.k.} <.M.k.:.} e e.o.",
"0 u } } o.e.+.;.3.} w.w.o.;.>.u.e.l 0 0 >.p.o.>.k.v.w.b.;.l ;.e ",
"l l +.o.=.S.v.+.} } 4.k.=.+.>.=.:.i u >.e.u.=.>.e.u.} w.3.w.+.d ",
"=.o.o.=.5.M.x.w.<.e.w.r.=.[ #. .u 1.k.b.:.k.a.>.=.} } e.;.4.w.d ",
"=.o.#.;.>.>.;.+.w.e.=.;.} &.i.h w.v.;.x.k.i.l.p.} 0 ;.>.:.:.e.v.",
"l l } j l e.o.d } e } | -.o.$.k v.0.<.8.k.=.o.%.} >.e.>.;.s.>.b.",
"z.w.u.u.v.M.l 0 } h ! g ) } [ c.f.o.} =.| w.o.a w.u.>.>.>.<.} ) ",
"=.w.x.M.w.w.e.>.3.e 6.j.$.T o.,.5 4 9 3 w { >.>.z.O.>.w.} l u.Z.",
"l o.>.>.} >.u.>.) o.b.e.r > & $ I S % D 3 } f.r.u.7.o.o.w 3.C.;.",
"} d e l >.>.o.v.c.w.v.:.Q > b v J m v H d X.r.@.w.>.;.e.o.=.b.e.",
"=.l w l l d } u.-.' 9.y.) & B Z ( A B : 9 r.'  ...d #.>.} o.>.3.",
"h :.s.=.! e } l { O.| o.t X G P / Y K $ p d.f.O.l =.l d d e.v.u.",
"d l -.:.o.t.3.+.} d d ] t @ N L ^ U V c - V.M.7.e.>.l l o.>.u.l ",
"w.} } ;.} z.>.o.i 2 } h.7 + o N M V O * = z.$.a ..>.>.d } r.>.0 ",
"n.z.w.w.o.>.l d < o.k.9...; . z C x   ; s B...y o.=.:.o.u.e.o.o.",
"B.w.w.=.} ! d 2 l n.O.` -.k p E R ~ w a s s. .j =.o.} u.b.l d } ",
"u.o.=.0 l z.k.} 2.N.j.=.} u p.} W 4.u.<...<.o.*.>. .} 7.>.o.) w ",
"e.l 0 0 >.u.+.;.g.x.w.v.=.! =.8 0 u } ) +.r.=.=.w.o.4.w.o.=.<.>.",
";.d e >.w.e.=.>.u.q.` r.>.1.-.d [ d #.+.$.A.v.=.} _ w.k.=.o.;.=.",
"d >.s.b.>.b.u.;.=.[ } u.=.e.w.l #.o.o.=.4.Z.x.w.>.e.e.e.=.l >.>.",
"e.x.>.k.k.7.u.s. .w :.5.>.$.u.3.o.&.o.=.;.>.+.=.e.u.;.+.} o.r.>.",
"M.t.>.>.u.;.;.o.l >.e.;.;.s.>.f...h o.l l w.o.d ! e } o.=.;.} 0 ",
"u.} } =.o.e.l l e.u.>.>.:.:.} s.c.r.u.w.M.B.d 0 } d } e l l o.>.",
"o.[ d +.) $.>.>.u.=.>.e.l l b.m.;.3.v.v.w.w.u.-.w.e w.M.k.w.<.z.",
"l ! } ;. .l z.>.k.>.+.o.e >.Z.} l =.w.-. .3.u.>.l  .c.w.=.) e ! ",
"} u ` +.d =.w.#.e.;.;.>.=.>.k.3.} a e [ ;.=.o.v.n.e.x.=.=.} l 2 ",
"r.w 0 e 0 r.} o.o.d o.e.} o.>.w.>.h 4 l } l } k.:.l u.u.l } } 0 "
};
