/* XPM */
static char *Qm9hcm1vZGlmaWU_[] = {
/* columns rows colors chars-per-pixel */
"16 16 242 2 ",
"   c #672A31",
".  c #792A30",
"X  c #7D403D",
"o  c #734C4D",
"O  c #7B484D",
"+  c #75585A",
"@  c #696A6F",
"#  c gray44",
"$  c #737776",
"%  c gray46",
"&  c #747675",
"*  c #7C7271",
"=  c #7B7776",
"-  c #747972",
";  c #727876",
":  c #777D79",
">  c #7E797D",
",  c gray49",
"<  c #7D7F7C",
"1  c #7E7C7F",
"2  c gray50",
"3  c #843A37",
"4  c #99363B",
"5  c #8C3949",
"6  c #B23847",
"7  c #83565B",
"8  c #84575C",
"9  c #915459",
"0  c #AC474B",
"q  c #856C6F",
"w  c #8C6E6C",
"e  c #8B7C75",
"r  c #88737A",
"t  c #807C7D",
"y  c #8A797F",
"u  c #8B7D7D",
"i  c #997076",
"p  c #CF544F",
"a  c #7F807B",
"s  c #7B847F",
"d  c #81807E",
"f  c #85817E",
"g  c #88837F",
"h  c #7A7F82",
"j  c #827881",
"k  c #827D81",
"l  c #817F80",
"z  c #857F81",
"x  c #847F83",
"c  c #7E878C",
"v  c #838280",
"b  c #868082",
"n  c #878382",
"m  c #848683",
"M  c #868084",
"N  c #828685",
"B  c #848484",
"V  c #868487",
"C  c #898387",
"Z  c #888687",
"A  c #8D8487",
"S  c #8C8686",
"D  c #868982",
"F  c #838987",
"G  c #878986",
"H  c #888984",
"J  c #8A8985",
"K  c #898289",
"L  c #898788",
"P  c #89868D",
"I  c #868A89",
"U  c #8A8889",
"Y  c #8B8A88",
"T  c #89898B",
"R  c #8F8B88",
"E  c #8D898A",
"W  c #8A8C89",
"Q  c #8E8F8A",
"!  c #8B8B8D",
"~  c #8B898E",
"^  c #8E898D",
"/  c #8D8B8C",
"(  c #898D8C",
")  c #8B8D8C",
"_  c #888E8C",
"`  c #898D8E",
"'  c #8D8D8D",
"]  c #8C8E8D",
"[  c #8D8F8E",
"{  c #958383",
"}  c #908486",
"|  c #908F8A",
" . c #91888D",
".. c #928E8F",
"X. c #83928D",
"o. c #86958E",
"O. c #8A918A",
"+. c #8B908C",
"@. c #8B918F",
"#. c #8E908D",
"$. c #888D91",
"%. c #8A8E91",
"&. c #8F8D90",
"*. c #8E8D92",
"=. c #908B91",
"-. c #928D91",
";. c #918F90",
":. c #889291",
">. c #8B9093",
",. c #8F9092",
"<. c #8F9392",
"1. c #8E9792",
"2. c #8A9197",
"3. c #8D9194",
"4. c #8C9594",
"5. c #8E9794",
"6. c #8C9A9B",
"7. c #929091",
"8. c #909291",
"9. c #929290",
"0. c #939192",
"q. c #929292",
"w. c #939393",
"e. c #979191",
"r. c #929491",
"t. c #929791",
"y. c #939592",
"u. c #929493",
"i. c #919692",
"p. c #929294",
"a. c #919594",
"s. c #949496",
"d. c #989292",
"f. c #999592",
"g. c #9A9792",
"h. c #989397",
"j. c #9A9496",
"k. c #969893",
"l. c #979893",
"z. c #949995",
"x. c #969B95",
"c. c #979996",
"v. c #959B97",
"b. c #989A95",
"n. c #9A9997",
"m. c #9B9A96",
"M. c #9C9B97",
"N. c #939498",
"B. c #919699",
"V. c #99929A",
"C. c #999498",
"Z. c #9A9599",
"A. c #9D9499",
"S. c #9B969C",
"D. c #98979F",
"F. c #959998",
"G. c #959E99",
"H. c #929A9C",
"J. c #949D9C",
"K. c #989898",
"L. c gray60",
"P. c #9A9899",
"I. c #999B98",
"U. c #9A9A98",
"Y. c #9B9A98",
"T. c #9D9998",
"R. c #9C9A9B",
"E. c #9E9D9B",
"W. c #9D9F9A",
"Q. c #9D989C",
"!. c #989E9C",
"~. c #999F9D",
"^. c #9B9C9E",
"/. c gray61",
"(. c #9E9C9D",
"). c #A09896",
"_. c #A19B9B",
"`. c #A09C9B",
"'. c #A29E9B",
"]. c #A49F9B",
"[. c #A09A9E",
"{. c #A19D9E",
"}. c #91A099",
"|. c #9BA19F",
" X c #9FA19C",
".X c #9CA09F",
"XX c #9FA49E",
"oX c #9EA59E",
"OX c #A1A09C",
"+X c #A2A19D",
"@X c #A2A39E",
"#X c #A4A19C",
"$X c #9F9AA0",
"%X c #9D9EA0",
"&X c #9F9FA1",
"*X c #9E9FA3",
"=X c #A09BA1",
"-X c #A09EA1",
";X c #A49FA3",
":X c #A59FA3",
">X c #A99CA3",
",X c #98A1A0",
"<X c #9CA0A1",
"1X c #9FA5A5",
"2X c #9CA4A6",
"3X c #A0A0A0",
"4X c #A2A2A2",
"5X c #A6A0A2",
"6X c #A1A6A2",
"7X c #A1A7A3",
"8X c #A3A3A5",
"9X c #A5A0A4",
"0X c #A6A1A5",
"qX c #A5A3A6",
"wX c #A7A2A6",
"eX c #A0A6A6",
"rX c #A5A5A5",
"tX c #A6A4A5",
"yX c #A7A7A5",
"uX c #A4A4A6",
"iX c #A8A7A3",
"pX c #A9A5A6",
"aX c #A2ABA6",
"sX c #A5AAA4",
"dX c #A1A5A8",
"fX c #A0A5A9",
"gX c #A5A4A9",
"hX c #A7A5A8",
"jX c #A6A7A9",
"kX c #A7A6AB",
"lX c #ABA5A9",
"zX c #ABA7A8",
"xX c #ABA4AB",
"cX c #A2A8A8",
"vX c gray66",
"bX c #ADA9A8",
"nX c #AAAAAC",
"mX c #B1ABAD",
"MX c #AFB4B0",
"NX c #ACB1B4",
"BX c #B5B9BA",
"VX c #BAB8B9",
/* pixels */
"F.P._.bXa.: <.9XT s.%.*.x x t O.",
"Z 0.P.[ ] <.E.E T./.v.a # (.0.VX",
"-.[ a.I 0.C.C.b M.J | D XXv.V lX",
"= ) |.jX-.9Xp.J.:.; +Xl.sX7XP.Z ",
"J #.vX;X[.-X@.o.6.NXjXzXY a.m.9X",
"v.a.wXk 1 k J g.>X .;X~ C.{.M.x.",
"a.rXwX8X_ iXq 8 9 o * %XgXC.G MX",
"t t x ,X}.#X7 5 0 . e 1.>.-.C.rX",
"x l.G ..F h O 6 p X { cX[ u e.8X",
"5Xv.l.A @ J.+ . 4   j $.w.| v.X.",
"jXF O.A $X2Xt w i r $X2.) `.f., ",
"P ; 9X).mX2X4.n : <.1XgX) `.f.A.",
"V.BXaX@Xn p.,X*X#.;.5XE.W.x.4.B.",
"zX*.|.#.m.(.(.=Xt.m.#Xg < m ] 3.",
"1 T T ^.{.m.L nX!.7X XP...rXh.J ",
"s & K S.w.;.a.%Xt , b 7X9XrXV - "
};
