/* XPM */
static char * ex2_16x_xpm[] = {
"16 16 117 2",
"  	c None",
". 	c #9F8A50",
"+ 	c #917B41",
"@ 	c #7B672D",
"# 	c #8C763A",
"$ 	c #705E26",
"% 	c #988247",
"& 	c #7D6A34",
"* 	c #857034",
"= 	c #A18B4D",
"- 	c #6F5E28",
"; 	c #6B5924",
"> 	c #736129",
", 	c #8C7539",
"' 	c #715E28",
") 	c #836E35",
"! 	c #645322",
"~ 	c #A38D50",
"{ 	c #826E34",
"] 	c #9A8449",
"^ 	c #5E4F1E",
"/ 	c #504318",
"( 	c #685722",
"_ 	c #766329",
": 	c #635220",
"< 	c #645320",
"[ 	c #5D4E1E",
"} 	c #736028",
"| 	c #857139",
"1 	c #836F36",
"2 	c #8D793F",
"3 	c #A69155",
"4 	c #473C18",
"5 	c #584A1C",
"6 	c #4B3F18",
"7 	c #685723",
"8 	c #635320",
"9 	c #79652B",
"0 	c #514418",
"a 	c #6E5C26",
"b 	c #7A662C",
"c 	c #79662E",
"d 	c #735F29",
"e 	c #7E6A32",
"f 	c #9F894C",
"g 	c #756229",
"h 	c #3A321A",
"i 	c #463B19",
"j 	c #453A19",
"k 	c #675622",
"l 	c #6E5D25",
"m 	c #7E692D",
"n 	c #5C4D1D",
"o 	c #7D682D",
"p 	c #846F33",
"q 	c #7B672E",
"r 	c #705E28",
"s 	c #917A3B",
"t 	c #39321A",
"u 	c #39311A",
"v 	c #4A3E1B",
"w 	c #3F3619",
"x 	c #4D411B",
"y 	c #60501F",
"z 	c #715F27",
"A 	c #574A1D",
"B 	c #75622A",
"C 	c #816C31",
"D 	c #816D33",
"E 	c #7A662F",
"F 	c #947D3D",
"G 	c #836E32",
"H 	c #443A19",
"I 	c #352E18",
"J 	c #433918",
"K 	c #483D19",
"L 	c #625220",
"M 	c #4A3E18",
"N 	c #53461A",
"O 	c #665522",
"P 	c #715E27",
"Q 	c #76632D",
"R 	c #6D5B26",
"S 	c #8A7537",
"T 	c #3E3519",
"U 	c #342D17",
"V 	c #3D3519",
"W 	c #302A15",
"X 	c #4F421A",
"Y 	c #52451E",
"Z 	c #55471A",
"` 	c #695823",
" .	c #846F32",
"..	c #3A3115",
"+.	c #393017",
"@.	c #292312",
"#.	c #2D2815",
"$.	c #2E2815",
"%.	c #272212",
"&.	c #51441B",
"*.	c #362E14",
"=.	c #282212",
"-.	c #2C2614",
";.	c #201C0F",
">.	c #201C0E",
",.	c #1F1B0E",
"'.	c #262111",
").	c #2D2714",
"!.	c #332C17",
"~.	c #3C3317",
"{.	c #231E0F",
"].	c #3B3217",
"^.	c #4E421A",
"/.	c #352D14",
"(.	c #241F0F",
"_.	c #221E0E",
":.	c #4B3F16",
"                                ",
"              . +               ",
"        @ # $ % & * = -         ",
"      ; > , ' ) ! * ~ { ]       ",
"    ^ / ( _ : < [ } | 1 2 3     ",
"  4 5 6 7 8 9 0 a b c d e f g   ",
"  h i j k l m n g o p q r s b   ",
"t u v w x y z A ( B C D E F G 9 ",
"H I J w v K L M N O P Q R G S b ",
"  I T U V T w W T X i Y Z `  .  ",
"  ..+.@.#.$.#.%.%.$.$.U w &.z   ",
"    *.=.-.%.;.>.,.'.%.).!.~.    ",
"      *.{.,.,.,.,.,.,.{.].      ",
"        ^./.(._._.(./.^.        ",
"              :.:.              ",
"                                "};
