/* XPM */
static char *result[] = {
/* columns rows colors chars-per-pixel */
"32 32 10 1 ",
"  c #1F1B0E",
". c #38311A",
"X c #4E4117",
"o c #645420",
"O c #766329",
"+ c #897233",
"@ c #9D8543",
"# c #9B854C",
"$ c #A99458",
"% c None",
/* pixels */
"%%%%%%%%%%%%%%%%%%%%%%%%%%%%%%%%",
"%%%%%%%%%%%%%%%%%%%%%%%%%%%%%%%%",
"%%%%%%%%%%%%%%%%%%%%%%%%%%%%%%%%",
"%%%%%%%%%%%%oo#$#+oo%%%%%%%%%%%%",
"%%%%%%%%%%++Oo+$#oO+@$o%%%%%%%%%",
"%%%%%%%%+o#+Oo+$+XO@$@oOo%%%%%%%",
"%%%%%%+o+o#++XO#OXO@$$o+$@%%%%%%",
"%%%%%OoXOo+++XO+oXO+@$o@$O$%%%%%",
"%%%%oXXXooO+OXoOoXoO+$X@@O$$%%%%",
"%%%XooXXoOoOoXXoXo+oX+o@$o$$+%%%",
"%%%XXoXXXOXo+oXXX++o+XX+@X$@Oo%%",
"%%X.XoX.oOoo+OXXoO+o@oX++o$@OO%%",
"%%...XX.oOoO+OXoOoO+@Oo+OX@+o+%%",
"%X..X.X.XOoO+OoXO+o++OX@+X+@o+O%",
"%....o...oXOOOoXoOX+@OX@@X@@o@O%",
"%...X.X.X.oXOoo.ooo++oo@+X+@O+O%",
"%....X...o.XOoXXXoXO+oX@+XO@O@O%",
"%X. X.X.X.X.oXX.XXXOOoX+OXO+O@O%",
"%o...X...X.X.X. X.XoXX.OXXoOO@O%",
"%%. ... ....... ...X...XXoXOO+%%",
"%%X .X   . . .   . . ...X.XoOO%%",
"%%%. .. . . . .   . . . ...XOo%%",
"%%%X .   . .       . . . ...o%%%",
"%%%%X . .             . .. X%%%%",
"%%%%%X                   .X%%%%%",
"%%%%%%X.                .X%%%%%%",
"%%%%%%%oX.            .Xo%%%%%%%",
"%%%%%%%%%oX.        .Xo%%%%%%%%%",
"%%%%%%%%%%%%oXXXXXXo%%%%%%%%%%%%",
"%%%%%%%%%%%%%%%%%%%%%%%%%%%%%%%%",
"%%%%%%%%%%%%%%%%%%%%%%%%%%%%%%%%",
"%%%%%%%%%%%%%%%%%%%%%%%%%%%%%%%%"
};
