/* XPM */
static char *ZW5lbWll[] = {
/* columns rows colors chars-per-pixel */
"16 16 236 2 ",
"   c #1A1114",
".  c #1E131B",
"X  c #1B161C",
"o  c #49182D",
"O  c #441F30",
"+  c #462C35",
"@  c #522D35",
"#  c #563A39",
"$  c #564A4A",
"%  c #4A4A52",
"&  c #4A4E51",
"*  c #5D4E55",
"=  c #55595C",
"-  c #67424A",
";  c #61464B",
":  c #724E42",
">  c #624E50",
",  c #6C4E56",
"<  c #685D65",
"1  c #6F5E64",
"2  c #725E67",
"3  c #746E6E",
"4  c #6E706D",
"5  c #7C6D70",
"6  c #707271",
"7  c #727473",
"8  c #757577",
"9  c #797778",
"0  c #7B7B79",
"q  c #7C7C7A",
"w  c #7B7D7C",
"e  c #7F7F7D",
"r  c #7F7D7E",
"t  c gray50",
"y  c #887378",
"u  c #887579",
"i  c #8B7B7E",
"p  c #7E807B",
"a  c #7E807D",
"s  c #81827D",
"d  c #80807E",
"f  c #958575",
"g  c #98937F",
"h  c #B59F78",
"j  c #ABA17D",
"k  c #7D7987",
"l  c #7D7B88",
"z  c #837981",
"x  c #847B80",
"c  c #9B7E83",
"v  c #818181",
"b  c #818382",
"n  c #808185",
"m  c #838584",
"M  c #838786",
"N  c gray52",
"B  c #848685",
"V  c #848486",
"C  c gray53",
"Z  c #888481",
"A  c #8C8084",
"S  c #878984",
"D  c #868885",
"F  c #838488",
"G  c #858688",
"H  c #85868A",
"J  c #87888A",
"K  c #888888",
"L  c #898989",
"P  c #8B8A88",
"I  c #8E888A",
"U  c #8E8A8B",
"Y  c #8A8C89",
"T  c #888C8B",
"R  c #8A8C8B",
"E  c #8D8D8B",
"W  c #8C8E8B",
"Q  c #8B8B8D",
"!  c #8D888C",
"~  c #8F8B8C",
"^  c #8D8B8E",
"/  c #8B8D8C",
"(  c #8A8E8D",
")  c gray55",
"_  c #8E8C8D",
"`  c #8E8E8E",
"'  c gray56",
"]  c #908685",
"[  c #97878A",
"{  c #988E8F",
"}  c #8B9187",
"|  c #8D9389",
" . c #8B908C",
".. c #8B918D",
"X. c #8E908D",
"o. c #8C908F",
"O. c #8F918E",
"+. c #8E908F",
"@. c #92918C",
"#. c #91908E",
"$. c #91918F",
"%. c #95908D",
"&. c #98988E",
"*. c #8D8A91",
"=. c #8E8F91",
"-. c #8F8D92",
";. c #8F8E93",
":. c #918C90",
">. c #918F90",
",. c #938F90",
"<. c #918F92",
"1. c #948F93",
"2. c #9D8D90",
"3. c #9B8B96",
"4. c #948E98",
"5. c #8F9190",
"6. c #8D9391",
"7. c #8F9092",
"8. c #909090",
"9. c gray57",
"0. c #929091",
"q. c #949091",
"w. c #969291",
"e. c #929493",
"r. c #959490",
"t. c #949590",
"y. c #969792",
"u. c #939194",
"i. c #929395",
"p. c #939297",
"a. c #979195",
"s. c #979394",
"d. c #919594",
"f. c #939594",
"g. c gray58",
"h. c #959595",
"j. c #969495",
"k. c #969694",
"l. c #979795",
"z. c #949597",
"x. c #959597",
"c. c #959796",
"v. c #979797",
"b. c #999592",
"n. c #9D9394",
"m. c #999594",
"M. c #969895",
"N. c #949897",
"B. c #969897",
"V. c #969B97",
"C. c #999A92",
"Z. c #9E9A91",
"A. c #989994",
"S. c #989896",
"D. c #999F95",
"F. c #9B9C97",
"G. c #95929B",
"H. c #959499",
"J. c #969499",
"K. c #969698",
"L. c #999798",
"P. c #98969B",
"I. c #949A98",
"U. c #979B9C",
"Y. c #959A9E",
"T. c #979D9D",
"R. c #9A9899",
"E. c #989A99",
"W. c #9B9A98",
"Q. c #9E9A99",
"!. c #9C9A9B",
"~. c #9D9D9B",
"^. c #9E9D9B",
"/. c #999A9C",
"(. c #9A999E",
"). c #9D9B9C",
"_. c #989C9D",
"`. c #9B9D9C",
"'. c #9A9E9D",
"]. c gray61",
"[. c #9D9D9D",
"{. c #9E9C9D",
"}. c #9F9E9C",
"|. c #9F9F9F",
" X c #A38289",
".X c #A09697",
"XX c #A19A92",
"oX c #A19B9D",
"OX c #A39D9F",
"+X c #9CA09F",
"@X c #9EA09F",
"#X c #9DA29E",
"$X c #A0A19B",
"%X c #A1A19F",
"&X c #B0A29F",
"*X c #979AA1",
"=X c #9B9AA0",
"-X c #9E9EA0",
";X c #9F9FA1",
":X c #A19FA0",
">X c #A09EA1",
",X c #A59FA1",
"<X c #9AA3A0",
"1X c #9DA1A2",
"2X c #9FA5A3",
"3X c gray63",
"4X c #A2A0A1",
"5X c #A1A1A3",
"6X c #A2A2A2",
"7X c #A4A5A0",
"8X c #A2A3A5",
"9X c #A3A7A6",
"0X c #A4A4A4",
"qX c #A5A5A5",
"wX c #A5A7A4",
"eX c #A4A5A7",
"rX c #A5A7A6",
"tX c #A8A4A3",
"yX c #A8A7A5",
"uX c #A4A9A5",
"iX c #AAA9A4",
"pX c #ACABA6",
"aX c #A3A7AA",
"sX c #A4A5A9",
"dX c #A6A7A9",
"fX c #A9A4A8",
"gX c #A9A7A8",
"hX c #ABA7A8",
"jX c #A7ABAA",
"kX c gray66",
"lX c #AAAFAB",
"zX c #A9AAAC",
"xX c #ABADAC",
"cX c #A9AFAF",
"vX c #ADADAF",
"bX c #B4B0B1",
/* pixels */
"U.l.w.bXK.n C iXS [.:.9.i p a M ",
"M K.u._ Y M.=.G.M.9.P.G.6 ..l.cX",
"+.p.*.l.} } eXk F.e.H F ;.zXM =X",
"4 Q (.sX .D.&.Z.@.0 T.1XcX{.-X=.",
"L E 5XeX*X5Xg j XXpXcX2XE w.W.-X",
"5Xy.C.u.k z f h &XZ M.6.C.b.[.`.",
"l.7X#X5X4.3.# : >   & U.eXm._ eX",
"F q s &.OX2 O o + . % U.=.a._ aX",
"I 9.T +.u $ ; @ < X = cX( M C 7X",
"Q.I.e.+.4 i [ - * x Q f.( l.9.M.",
"1X+.K ~ %.u ,  X1 A l.,.,.,.5Xi ",
"f.q Q.oX.X5 2.u [ n.Q.yX6.`.W.6.",
"( jXyXhXI Y ^.[.] @.[.7XP.[.+.M.",
"eXm.5X,.:.1XM.<XyXl.#X..m r 6.M ",
"Q M v {.uXM.M jXa.5XeX`.=.Q.[._ ",
"_ 7 b l._ S.:.,XI 8 J (.>XyX4.0 "
};
