/* XPM */
static char *ZW5lbWll[] = {
/* columns rows colors chars-per-pixel */
"32 32 173 2 ",
"   c #080702",
".  c #090909",
"X  c #000506",
"o  c #050914",
"O  c #160610",
"+  c #0A141A",
"@  c #091C18",
"#  c #091114",
"$  c #151318",
"%  c #300813",
"&  c #330D1A",
"*  c #3A1C14",
"=  c #250D2D",
"-  c #281F24",
";  c #281326",
":  c #37112A",
">  c #10202D",
",  c #202833",
"<  c #272D39",
"1  c #3E2137",
"2  c #362934",
"3  c #323338",
"4  c #570F1B",
"5  c #59071D",
"6  c #5F131D",
"7  c #45171A",
"8  c #480D21",
"9  c #430A2D",
"0  c #500A26",
"q  c #580D2D",
"w  c #4D1725",
"e  c #5E1727",
"r  c #5A192F",
"t  c #630925",
"y  c #640F36",
"u  c #443530",
"i  c #692F3E",
"p  c #6B333C",
"a  c #69272B",
"s  c #6C403D",
"d  c #2C2841",
"f  c #493A41",
"g  c #593C40",
"h  c #493550",
"j  c #673540",
"k  c #62394B",
"l  c #753F4D",
"z  c #474641",
"x  c #494440",
"c  c #504F4A",
"v  c #52544F",
"b  c #4A4F53",
"n  c #554051",
"m  c gray34",
"M  c #5E5D5D",
"N  c #694050",
"B  c #724655",
"V  c #625D57",
"C  c #78644B",
"Z  c #58596E",
"A  c #595A68",
"S  c #764960",
"D  c #784A64",
"F  c #7A5660",
"G  c #5E6D72",
"H  c #636363",
"J  c #6F6661",
"K  c #6E676F",
"L  c #6C6C6C",
"P  c #726567",
"I  c #77696B",
"U  c #6A766C",
"Y  c #7D756A",
"T  c #666F76",
"R  c #6C7E70",
"E  c #747474",
"W  c #7F7677",
"Q  c #777872",
"!  c #76747D",
"~  c #7C7C7C",
"^  c #797A74",
"/  c #9B4D37",
"(  c #85474C",
")  c #874E5F",
"_  c #874D63",
"`  c #8F5764",
"'  c #885B69",
"]  c #807D78",
"[  c #867377",
"{  c #6F8070",
"}  c #6D877E",
"|  c #718177",
" . c #7F8B7D",
".. c #A08745",
"X. c #938B67",
"o. c #8F847E",
"O. c #B0976E",
"+. c #B29E69",
"@. c #B1A571",
"#. c #C6B259",
"$. c #CE9371",
"%. c #D4C175",
"&. c #767D83",
"*. c #7B7A81",
"=. c #847B81",
"-. c #8C7B83",
";. c #9A7684",
":. c #7D8485",
">. c #7F8986",
",. c #7A8B8B",
"<. c #848484",
"1. c #8E8B84",
"2. c #8C848B",
"3. c #8C8C8C",
"4. c #84888A",
"5. c #908F8D",
"6. c #958888",
"7. c #88938D",
"8. c #95958B",
"9. c #8B8E97",
"0. c #958F9D",
"q. c #8F9094",
"w. c #8E9198",
"e. c #949393",
"r. c #9A9796",
"t. c #949499",
"y. c #97989A",
"u. c #9B9B9B",
"i. c #989A94",
"p. c #B08E8C",
"a. c #A29F8E",
"s. c #A29D9B",
"d. c #A69896",
"f. c #B49291",
"g. c #9CA39D",
"h. c #A3A49D",
"j. c #B68CA0",
"k. c #A49DA3",
"l. c #AF9AA9",
"z. c #9CA2A3",
"x. c #A3A3A3",
"c. c #A9AAA6",
"v. c #A4A5A9",
"b. c #A6AFAE",
"n. c #ACACAC",
"m. c #ADA2A6",
"M. c #BBABA5",
"N. c #A6B0AC",
"B. c #ADB5AC",
"V. c #ACB4A5",
"C. c #AFADB0",
"Z. c #B0AEB1",
"A. c #ABB3B6",
"S. c #AFBFBC",
"D. c #B3B3B3",
"F. c #BBBBBB",
"G. c #B5B8BD",
"H. c #C39A98",
"J. c #C3B181",
"K. c #C0AA9C",
"L. c #D9AD94",
"P. c #C9AEA7",
"I. c #C6B3AF",
"U. c #C0B5B3",
"Y. c #DAD385",
"T. c #C0C2AD",
"R. c #C2C3BD",
"E. c #C1B0C0",
"W. c #C3C3C3",
"Q. c #CFCDC0",
"!. c #CCCCCC",
"~. c #D2D2D2",
"^. c #D8D6D9",
/* pixels */
"c.e.c.c.e.y.E.c.<.5.3.L E <.!.D.u.E C.A.<.E ~ ~ ~ <.e.<.<.L m ~ ",
"3.x.y.3.~ 3.~.b.u.x.4.~ <.r.c.y.2.~ 3.u.e.e.Z.8.5.<.L L y.<.o.D.",
"<.<.3.i.3.e.D.^ <.e.x.<.^ e.n.] 5.3.~ 8.4.x.Z.e.<.m L r.n.3.z.!.",
"<.! 3.x.3.u.n.E E y.q.r.x.n.y.<.3.!.c.v.3.c.<.*.A H D.D.e.3.y.W.",
"c.x.e.4.E i.n.^ ^ u.^ y.D.u.E E e.C.y.c.<.<.~ H M x.x.<.e.<.3.!.",
"E 3.k.x.4.u.t.3.x.y.*.y.x.e.3.L t.e.e.~ H y.R.y.4.F.R.k.<.^ 4.z.",
"M H ~ e.~ s.y.e.u.t.4.D.8.q.y.u.D.e.L M =.Z.s.3.u.W.c.D.G.] e.<.",
"!  .~ e.<.F.~.x.3.] 3.F.u.5.e.e.u.<.L <.x.b.u.i.x.Z.e.<.n.e.x.~ ",
"2.8.3.q.3.W.W.n.v.s.h.V.u.2.1.a.Y :.z.R.x.m.U.g.e.3.^ k.x.e.n.3.",
"3.e.<.t.i.e.e.q.e.A.k.0.9.X.%.Y.J.Q.k.c.S.z.c.G.u.E ~ n.3.c.e.D.",
"u.E <.<.! i.v.^ ^ =.E :.q.@.#...+.T.u.k.v.A.3.w.o.q.u.z.5.x.C.x.",
"!.x.D.u.D.!.k.H ^ ] ~ | ] C O.L.M.7.U o.=.w.s.^ 4.D.x.u.x.r.3.:.",
"D.e.D.W.D.u.c.u.v.4.*.E.-.& ( $.' A @   3 &.y.8.v.x.3.n.q.E y.W.",
"E <.e.u.e.r.c.k.3.R n.j.w 9 q / a 1 o # + T y.C.n.c.e.3.^ E !.n.",
"3.~ E E <.y.3.c.R.B.s.j 4 : = 8 7 1 ; - + G C.t.u.k.e.k.s.4.c.D.",
"x.4.L E ^ 4.L x.l.,.K r l 3 > d A h % * . &.y.~ 3.~ ^ z.e.~ u.u.",
"t.^ n.c.<.! ^ <.=.] x p x 2 , Z =.b X # + &.F.s.<.4.<.E L  .W.n.",
"3.~ 3.u.e.e.n.e.t.] J u V F q y D ! $ O $ <.^.b.k.x.3.~ 2.q.Z.t.",
"y.5.*.e.4.s.n.e.:.M c R I.d.e 5 A ,.:.>.:.e.Z.! ~ e.x.<.E t.c.^ ",
"3.!.c.x.5.x.4.~ M L n.h.` 8.f.6 < S ;.x.e.e.b.W ~ y.e.8.u.C.u.5.",
"e.n.u.c.o.:.~ H H u.k._ t g d.H.n 8 ) 1.I u.N.^ ^ t.~ u.F.s.L ^ ",
"u.e.e.<.H y.R.t.2.S.F.g f J I M.r.m i.c.<.y.y.4.v.u.^ i.u.t.4.! ",
"F.e.L A <.Z.k.5.k.!.' k x.o.3.P f.V.o.1.~ z.u.8.u.y.3.D.i.3.y.u.",
"u.<.L <.u.Z.u.e.u.6.j [ A.e.g.B j P.V.r.*.F.~.x.<.<.2.D.z.e.e.r.",
"L 3.u.U.n.x.F.z.e.3.L e.c.e.D.<.^ e.5.e.e.W.F.Z.k.c.k.n.u.:.4.u.",
"L R.v.c.F.c.c.Z.u.E ~ n.e.x.q.n.q.e.4.r.e.y.y.5.y.c.v.u.q.o.g.x.",
"n.F.u.z.v.D.3.y.=.3.x.c.3.c.n.n.k.E <.<.L e.v.^ E <.E ^ q.t.y.^ ",
"W.y.] 5.3.e.y.^ 3.D.z.y.u.u.3.3.W.c.n.u.F.!.x.M ] *.E <.^ ^ <.5.",
"h.4.^ <.2.*.s.y.c.x.3.n.e.E y.F.C.e.D.W.D.u.c.u.x.~ <.D.D.n.u.n.",
"8.! ~ e.8.*.y.B.v.c.e.3.~ L ~.c.~ ~ u.u.3.y.c.x.e.<.s.F.k.4.^ E ",
"v.E E 3.2.E c.5.u.x.e.x.k.<.b.Z.q.^ E ^ <.s.<.b.W.c.C.Z.3.<.3.L ",
"F.<.L H H <.z.=.e.<.L c.e.<.i.u.k.8.A L <.4.L c.x.2.3.G.5.<.4.L "
};
