/* XPM */
static char *Tm9ybWFsK3Bvc2l0aW9u[] = {
/* columns rows colors chars-per-pixel */
"32 32 210 2 ",
"   c #000A04",
".  c #040F16",
"X  c #1B151F",
"o  c #26151F",
"O  c #212109",
"+  c #190D23",
"@  c #261525",
"#  c #0E2024",
"$  c #272439",
"%  c #766A18",
"&  c #3E3752",
"*  c #2B2B43",
"=  c #342A67",
"-  c #482E5E",
";  c #582E52",
":  c #4B365C",
">  c #543F5B",
",  c #66375D",
"<  c #553C62",
"1  c #553566",
"2  c #4E2F73",
"3  c #4A2B66",
"4  c #6E2870",
"5  c #773D70",
"6  c #702778",
"7  c #484946",
"8  c #4E5158",
"9  c gray34",
"0  c #5F5F5F",
"q  c #595658",
"w  c #4B485B",
"e  c #6F484D",
"r  c #705A43",
"t  c #625A5F",
"y  c #61615F",
"u  c #5A576A",
"i  c #585863",
"p  c #584D6D",
"a  c #605F64",
"s  c #72556C",
"d  c #675D77",
"f  c #71486F",
"g  c #646463",
"h  c #6C6C6C",
"j  c #686A68",
"k  c #68746A",
"l  c #73736E",
"z  c #77766E",
"x  c #696575",
"c  c #7C6C78",
"v  c #6F7C73",
"b  c #747474",
"n  c #7A7574",
"m  c #727B74",
"M  c #75747A",
"N  c #747D7B",
"B  c #7C7C7C",
"V  c #797777",
"C  c #887109",
"Z  c #927F32",
"A  c #A55949",
"S  c #917F41",
"D  c #8E6956",
"F  c #BA774E",
"G  c #885963",
"H  c #837373",
"J  c #80757B",
"K  c #78827D",
"L  c #7A8275",
"P  c #AD930E",
"I  c #BFA60B",
"U  c #A7852E",
"Y  c #DF9D0B",
"T  c #D99611",
"R  c #F59B00",
"E  c #DDB500",
"W  c #E6A008",
"Q  c #FFA904",
"!  c #E3B20F",
"~  c #FCBE15",
"^  c #F3B407",
"/  c #CF8E2F",
"(  c #DAAD30",
")  c #E3AC2E",
"_  c #E8BA25",
"`  c #F1B428",
"'  c #FECC02",
"]  c #FBC300",
"[  c #FDD602",
"{  c #FAD504",
"}  c #FCD21B",
"|  c #9E8455",
" . c #A38F50",
".. c #AE9052",
"X. c #B49350",
"o. c #A58E48",
"O. c #82837D",
"+. c #84877A",
"@. c #98847B",
"#. c #92907B",
"$. c #A48368",
"%. c #B88F73",
"&. c #AE8E6A",
"*. c #B5AD7E",
"=. c #CF8C54",
"-. c #CBB143",
";. c #D6A757",
":. c #F4A759",
">. c #D69465",
",. c #EF9F64",
"<. c #DAA768",
"1. c #EFB56B",
"2. c #F3A662",
"3. c #7D2C89",
"4. c #7D6E8F",
"5. c #727485",
"6. c #7E7F83",
"7. c #77728E",
"8. c #7B7B85",
"9. c #7D7195",
"0. c #B01BBD",
"q. c #9728A8",
"w. c #912C96",
"e. c #9A5A95",
"r. c #87588E",
"t. c #877C84",
"y. c #916796",
"u. c #8C7E95",
"i. c #987190",
"p. c #7C8183",
"a. c #7D8985",
"s. c #848484",
"d. c #8B8484",
"f. c #838E86",
"g. c #8A8B86",
"h. c #85858B",
"j. c #848A8C",
"k. c #8C8C8C",
"l. c #89848A",
"z. c #94868A",
"x. c #86938C",
"c. c #8A9389",
"v. c #91928D",
"b. c #93998E",
"n. c #9B9589",
"m. c #8B8C91",
"M. c #8A8995",
"N. c #908D93",
"B. c #9A8996",
"V. c #8E9692",
"C. c #8E9299",
"Z. c #86909C",
"A. c #949494",
"S. c #9B9A95",
"D. c #94949A",
"F. c #99949A",
"G. c #949B9C",
"H. c #9B9C9C",
"J. c #999393",
"K. c #B49985",
"L. c #A3949B",
"P. c #92A094",
"I. c #9CA29B",
"U. c #96A59A",
"Y. c #A3A39C",
"T. c #A2A395",
"R. c #9D9DA5",
"E. c #9497A2",
"W. c #A49EA5",
"Q. c #A49FAB",
"!. c #A89DA5",
"~. c #9CA3A4",
"^. c #9FAAAC",
"/. c #A3A3A3",
"(. c #A6AAA4",
"). c #AAA9A4",
"_. c #A5A6AA",
"`. c #A3ACAD",
"'. c #ACACAC",
"]. c #AEA3AA",
"[. c #B3ACA7",
"{. c #ABB4AB",
"}. c #ACB4A5",
"|. c #B4B3AB",
" X c #ADAAB2",
".X c #A7A5B0",
"XX c #B5AAB6",
"oX c #ACB2B3",
"OX c #AEB8B9",
"+X c #B3B3B3",
"@X c #BBB4B3",
"#X c #BBBBBB",
"$X c #B7B8B5",
"%X c #DAB294",
"&X c #C2A587",
"*X c #C2BEBB",
"=X c #C4A9A0",
"-X c #BFC1B5",
";X c #BFC3BD",
":X c #B9B5C4",
">X c #B6B2C3",
",X c #C4BAC2",
"<X c #B6C4C4",
"1X c #C3C3C3",
"2X c #CCCCCC",
"3X c #C8C6C8",
"4X c #D5D3CB",
"5X c #D2D2D2",
"6X c #E0E1DB",
"7X c #E4E4E6",
/* pixels */
"_.A.(._.A.F.1X(.u.f.f.l z h.3X@XS.b |.+Xl.M M 6.B s.A.s.s.j 9 V ",
"v./.F.k.B k.5X'.!.Y.m.V s.C.(.G.m.N j.H.V.S.{.v.N.s.b j F.g.6.$X",
"s.s.k.A.j.A.+XV K c._.s.B D.'.V k.v.s.v.s.S.'.J.s.9 j S.'.k./.2X",
"s.V k./.k.H.'.V v R.k.F.B.{.b.z.k.1X(.I.v._.k.M y g +X XA.k.F.3X",
"_./.v.g.b F.'.V J F.6.J.#XG.N c D.+XY._.K p.6.h 0 /./.l.A.g.h.2X",
"b k.W./.s.H.S.k.W.U.V F.I.A.y.f r.y.i.t.g U.;XJ.s.1X#XH.s.b k./.",
"y g B A.B ~.A.A.G.P.d.#Xc.i.q.w.6 4 5 s t.{.H.v.H.1X).+X$Xp.v.s.",
"B B B A.s.#X5X/.k.H z.OXU.e.0.q.2 3 1 u./.`.H.F./.'.A.j.'.A./.V ",
"g.m.k.A.k.1X<X X!.~.].'.F.e.3.; d d p |.`._.:XY.A.k.V /./.A.'.k.",
"k.A.s.S.F.A.S.v.n.'.^.k.#.u.f , F 2./ <.%X).U.$XH.V K '.k._.m.$X",
"H.V s.s.V A./.V N M m h.z.L.( ! F / ' ` ;.=Xb.V.B N.Y.Y.N./. X(.",
"2X/. XH.+X2XW.g m l.J 8.l ..~ ' E % W W ` 1.K.c j.$XW.F./.S.k.O.",
"oXA.+X3XoXH.).H.].p.J @XK.} Q R { T T  .Z >.%XJ._./.k.'.k.b F.<X",
"V s.S.F.v.A.'./.B.L (.OXq % Z / ] }  .G.g.H S.`.'._.A.k.V V 4X X",
"k.B b b j.H.j.).;X[.).{.+.&.>./ { [ -.a.s.n ).G.H.L.A./.H.g.'. X",
"Y.h.h b V s.h /.U.h.N.@Xm.@.:.} [ [ {  .h j.D.V v.K V /.A.B S.H.",
"S.V '.'.s.V V O.p.d.C.s.l. .) ' ^ Y I P @.E.#XR.s.g.s.b l B 3X'.",
"k.J j.H.A.A.'.A.A.O.j h n.U e Z r O   7 6.M.4X'./.~.k.B h.v.{.F.",
"S.V.B N.h.I. XJ.O.i h I.XXF 1 1 1 * + q C.v.|.z B A./.s.b A.'.V ",
"k.3X'./.k.(.j.V 0 j `.XXR.a.D >.%.G A K.x.n.XX5.B F.A.v.H.'.H.m.",
"A. XH.(.O.s.p.g i T.(.u.j.f.F 2.&XH =.S j F.XXk B F.B H.#XR.h V ",
"H.A.A.s.g F.;XF.j.$X,X/.Z.n w 1 s q o o z R.D.m.Y.H.V F.H.S.h.b ",
"$XA.h i s.oXW.v.R.*X'.{.}.H : = > 7 . X z R.S.A.H.F.k.oXF.k.S.H.",
"H.d.j g.L.{.H.A.H.+Xc.m.+X9.- & l n # . 8 <X4X/.g.s.l.$XI.V.A.S.",
"j k.H.1X_.W.#XH.S.m.V S._.7.p 8 g.k.g & x 3X$X+XI._./.'.H.s.k.I.",
"b 1X(._.#X(.).$XS.M p.(.A.7.d R.k.N.h.u x F.S.k.A.'.(.F.A.J H./.",
"'.#XF.H./.oXk.F.O.l./.Y.v.i w './.B 5.$ i D.H.V V p.b V v.D.H.V ",
"1XD.O.k.k.S.F.V j.+XW.Y.L.~.F.'.1X_.+X5. X3X(.a 6.B b s.V V p.v.",
"Y.h.V s.j.s.H.S.(./.k.'.A.W.7X6X$Xk. X:X_.F.|.D.(.J s.$X$X'.L.{.",
"m.V B J.v.J A.oX'._.A.g.V M 3X(.b s.R.R.V.S./._.A.K R.$XR.j.V l ",
"'.b b k.j.b '.A.F.(.v./.H.j.'.{.k.B l M h.S.+. X1X'.'.+Xk.s.h.h ",
"#Xs.j j g s.H.B A.B l '.F.B H.H./.k.0 h h.+.l _./.l.k.#Xk.s.h.l "
};
