/* XPM */
static char *Tm9ybWFsK3Bvc2l0aW9u[] = {
/* columns rows colors chars-per-pixel */
"16 16 251 2 ",
"   c #252027",
".  c #735F22",
"X  c #4A395B",
"o  c #5D5145",
"O  c #5C505E",
"+  c #7F455E",
"@  c #6D5457",
"#  c #7C5653",
"$  c #595868",
"%  c #635F76",
"&  c #71706C",
"*  c #6C6D71",
"=  c #6B6A7A",
"-  c #757671",
";  c #797572",
":  c #797C75",
">  c #7B7E77",
",  c #717078",
"<  c #777078",
"1  c gray48",
"2  c #7D7E79",
"3  c #7F7F7D",
"4  c #7F7D7E",
"5  c #977615",
"6  c #926B4C",
"7  c #846E63",
"8  c #9E6667",
"9  c #896A79",
"0  c #7C8278",
"q  c #C09419",
"w  c #E59E04",
"e  c #E4BB00",
"r  c #E3B61F",
"t  c #DEA929",
"y  c #FFD207",
"u  c #B28742",
"i  c #BF9048",
"p  c #A28C50",
"a  c #B7A64E",
"s  c #968664",
"d  c #99916C",
"f  c #81827A",
"g  c #82817F",
"h  c #81837E",
"j  c #84837F",
"k  c #87877D",
"l  c #8A877E",
"z  c #868A7C",
"x  c #8B8B7F",
"c  c #9D8D7E",
"v  c #96917E",
"b  c #A2836E",
"n  c #B28969",
"m  c #A7996A",
"M  c #DDA04D",
"N  c #D7B061",
"B  c #622C80",
"V  c #7F309B",
"C  c #6F598A",
"Z  c #7B7E83",
"A  c #876387",
"S  c #817F80",
"D  c #817F82",
"F  c #897E84",
"G  c #807F8D",
"H  c #917A8A",
"J  c #9F7FA8",
"K  c #7C8582",
"L  c #7F818E",
"P  c #7F898A",
"I  c #818680",
"U  c #828483",
"Y  c #858583",
"T  c #828387",
"R  c #868185",
"E  c #858086",
"W  c #888387",
"Q  c #898584",
"!  c #878882",
"~  c #858A84",
"^  c #8A8B83",
"/  c #8E8A81",
"(  c #8B8D80",
")  c #8C8887",
"_  c #8E8B86",
"`  c #8D8E86",
"'  c #878288",
"]  c #83868B",
"[  c #84828F",
"{  c #85858D",
"}  c #8D8288",
"|  c #878D8B",
" . c #8C8B89",
".. c #8C8E8B",
"X. c #89888D",
"o. c #8B8B8D",
"O. c #8B898E",
"+. c #8F8E8C",
"@. c #94828E",
"#. c #908F8B",
"$. c #908A8C",
"%. c #938F8C",
"&. c #928E8F",
"*. c #958F8F",
"=. c #8E9085",
"-. c #8C9884",
";. c #8B908A",
":. c #8B908C",
">. c #8F918C",
",. c #8C938C",
"<. c #8E908F",
"1. c #8E958E",
"2. c #92928A",
"3. c #949188",
"4. c #91928D",
"5. c #92918F",
"6. c #93968D",
"7. c #909B8D",
"8. c #95988F",
"9. c #98998B",
"0. c #848796",
"q. c #8A8490",
"w. c #848E90",
"e. c #8C8992",
"r. c #8F8993",
"t. c #8E8B92",
"y. c #8D8C91",
"u. c #8F8E93",
"i. c #8E8F93",
"p. c #8D8D95",
"a. c #8E8F94",
"s. c #958F91",
"d. c #908F95",
"f. c #968F97",
"g. c #9E8E91",
"h. c #908E99",
"j. c #908C9B",
"k. c #968E99",
"l. c #988E99",
"z. c #8B9191",
"x. c #8F9092",
"c. c #8F9490",
"v. c #8C9592",
"b. c #8F9394",
"n. c #8F9A92",
"m. c #8E919A",
"M. c #909090",
"N. c #929093",
"B. c #959192",
"V. c #919692",
"C. c #959094",
"Z. c #959394",
"A. c #909495",
"S. c #939594",
"D. c #929697",
"F. c #959794",
"G. c #969497",
"H. c #989296",
"J. c #979890",
"K. c #959B97",
"L. c #969D96",
"P. c #9B9B91",
"I. c #9B9A95",
"U. c #999896",
"Y. c #919199",
"T. c #939498",
"R. c #969499",
"E. c #95949C",
"W. c #989198",
"Q. c #9A9098",
"!. c #99949A",
"~. c #9D979B",
"^. c #9C909C",
"/. c #9C919F",
"(. c #979D99",
"). c #969B9F",
"_. c #979C9F",
"`. c #9E9898",
"'. c #9F999B",
"]. c #9E9D98",
"[. c #9E9F9A",
"{. c #999A9E",
"}. c #999F9F",
"|. c gray62",
" X c #A1969E",
".X c #A59B99",
"XX c #A09A9C",
"oX c #A09B9F",
"OX c #A09F9D",
"+X c #93A08F",
"@X c #99A28F",
"#X c #9AA595",
"$X c #9AA19A",
"%X c #9FA098",
"&X c #9FA09A",
"*X c #9FA19E",
"=X c #9EA09F",
"-X c #9EA39F",
";X c #9DA79F",
":X c #A7A285",
">X c #A2AA93",
",X c #A0A098",
"<X c #A6A79F",
"1X c #BCA796",
"2X c #9395A4",
"3X c #9A93A3",
"4X c #9D92A2",
"5X c #909AA4",
"6X c #9999A3",
"7X c #9A98A3",
"8X c #9C9BA0",
"9X c #9D9CA2",
"0X c #9E9DA2",
"qX c #9F9EA6",
"wX c #9796A8",
"eX c #9F9BB4",
"rX c #A09BA1",
"tX c #A09EA3",
"yX c #A79CA2",
"uX c #A49FA3",
"iX c #A09EAB",
"pX c #9DA1A0",
"aX c #9AA6A2",
"sX c #9DA7A6",
"dX c #9EA1A8",
"fX c #9DA7A8",
"gX c #A6A2A1",
"hX c #A2A7A1",
"jX c #A1A5A4",
"kX c #A4A6A5",
"lX c #A4A5A7",
"zX c #A8A4A5",
"xX c #A6A9A2",
"cX c #A9AEA7",
"vX c #ADACA7",
"bX c #A1A5A8",
"nX c #A1A4AD",
"mX c #A7A6AC",
"MX c #A9ABAA",
"NX c #ADA9A8",
"BX c #ADADAF",
"VX c #AEACAF",
"CX c #B0A8A6",
"ZX c #B6AAAC",
"AX c #A7B4A3",
"SX c #A7A5B0",
"DX c #AAA7B0",
"FX c #AAA7B2",
"GX c #A1AFB0",
"HX c #ACA9B0",
"JX c #BBC5BD",
/* pixels */
"L.3XD.AXG.X.G HX0.XXx 2.] 0 h L ",
"z ^.H.2.} O.7.-.9.XXl.f.= m.U.ZX",
"` N.c.c.G.*.uXA H 4X} $._ cXh .X",
",  .n.GXd.XXJ V X C 7X{.HXhX@X| ",
"e.$.OXzX~.8X@.+ 8 n 1XBXI j.eX#X",
"&XN.lX^ 4 Z m t q r N g.K.&X4X X",
"8.pXfX;X| }.p w e i b :XlXE.l CX",
"] 2 D l.uXaXd M y a K 5XN.+.1.sX",
" .b.x.X.{ I s u 5 . v dX6XR R SX",
"0Xc.V.4.* x.c 6 # @ !.{.4 3.P.6.",
"tXF.! Q d.MXF 9 7 o k >.G.&.&X0 ",
"a.- ].rXHX,Xe.X O   Y xX+.qX6X2X",
"D.vXvXDXX.4.t.% q.$ T mX].OX2.D.",
"hX%.uXp.T.gXh _.#X: Y.j.1 f x ` ",
">.R F pXjXW.B.JXwXiX0X|...&X|.t.",
"x.< D 7.;./.k.$Xt.& x 8.nXnXd.; "
};
