/* XPM */
static char *bGVmdA__[] = {
/* columns rows colors chars-per-pixel */
"32 32 192 2 ",
"   c #0F060B",
".  c #121A1E",
"X  c #2D2510",
"o  c #1E1F21",
"O  c #2F222B",
"+  c #52302E",
"@  c #796239",
"#  c #5E3545",
"$  c #422B55",
"%  c #4B3A5E",
"&  c #5E227C",
"*  c #4D3168",
"=  c #6D3076",
"-  c #763177",
";  c #545F4F",
":  c #4C4A54",
">  c gray34",
",  c #5D5C5E",
"<  c #53585E",
"1  c #634257",
"2  c #685A50",
"3  c #504168",
"4  c #5C5C63",
"5  c #5A4475",
"6  c #6C4770",
"7  c #735F78",
"8  c #704675",
"9  c #5E6166",
"0  c #646364",
"q  c #6C6C6C",
"w  c #6C666A",
"e  c #706F6A",
"r  c #73736B",
"t  c #6D6C71",
"y  c #6E6B79",
"u  c #716876",
"i  c #747474",
"p  c #7C7C77",
"a  c #7C7C7C",
"s  c #7A7678",
"d  c #A3730D",
"f  c #875346",
"g  c #846559",
"h  c #93654B",
"j  c #A96A52",
"k  c #996760",
"l  c #9A776C",
"z  c #806F7A",
"x  c #9A6D70",
"c  c #90707B",
"v  c #897665",
"b  c #A8756A",
"n  c #C36947",
"m  c #7D837C",
"M  c #7F8772",
"N  c #AF820B",
"B  c #B28E04",
"V  c #AA920C",
"C  c #AC8110",
"Z  c #93942C",
"A  c #B88D2E",
"S  c #ADA02E",
"D  c #C98C17",
"F  c #F5991E",
"G  c #F9A30E",
"H  c #F5BD00",
"J  c #F0AB1F",
"K  c #EBA90A",
"L  c #CF8F23",
"P  c #D99936",
"I  c #D0A735",
"U  c #DDC407",
"Y  c #E1C700",
"T  c #FFCB00",
"R  c #F0C908",
"E  c #EFD306",
"W  c #FED600",
"Q  c #FDDD01",
"!  c #FDDB0C",
"~  c #E8CA10",
"^  c #D3C820",
"/  c #E9D236",
"(  c #9E914B",
")  c #ABA642",
"_  c #84847F",
"`  c #918679",
"'  c #8E927B",
"]  c #9A9377",
"[  c #B28F65",
"{  c #A3906F",
"}  c #A8987E",
"|  c #BCA078",
" . c #D48658",
".. c #E38F51",
"X. c #CEA54D",
"o. c #F1AA58",
"O. c #C59D62",
"+. c #D29F68",
"@. c #C09572",
"#. c #C6A16A",
"$. c #D5A364",
"%. c #F7A664",
"&. c #7E348D",
"*. c #6D5B83",
"=. c #7A6683",
"-. c #7D7D84",
";. c #8C388E",
":. c #852296",
">. c #AD239D",
",. c #8C4788",
"<. c #8A6E88",
"1. c #847E89",
"2. c #847B84",
"3. c #9B7783",
"4. c #8C7E98",
"5. c #947D99",
"6. c #A854B6",
"7. c #B620C9",
"8. c #7A8583",
"9. c #848484",
"0. c #868B82",
"q. c #8A858B",
"w. c #858C8B",
"e. c #8C8C8C",
"r. c #89828A",
"t. c #948B8C",
"y. c #948787",
"u. c #8A938E",
"i. c #94938C",
"p. c #9C938C",
"a. c #828390",
"s. c #8C8B93",
"d. c #898A9A",
"f. c #878E98",
"g. c #948D92",
"h. c #938B97",
"j. c #8B9292",
"k. c #8C9896",
"l. c #8F999B",
"z. c #949494",
"x. c #9C9494",
"c. c #969897",
"v. c #9C9D95",
"b. c #93939B",
"n. c #9B949A",
"m. c #9B9C9B",
"M. c #949D98",
"N. c #A29B9E",
"B. c #A29997",
"V. c #B69F97",
"C. c #9EA09D",
"Z. c #9BA397",
"A. c #A2A19C",
"S. c #A4A295",
"D. c #B3A29A",
"F. c #9C9DA2",
"G. c #9C95A7",
"H. c #9192A4",
"J. c #A19FA2",
"K. c #9BA2A4",
"L. c #9EA1A8",
"P. c #A3A3A3",
"I. c #A9A5A4",
"U. c #ABABA3",
"Y. c #A6A9AC",
"T. c #ACACAC",
"R. c #A3A5A9",
"E. c #B0A9A3",
"W. c #B6AAAA",
"Q. c #AEB3A3",
"!. c #B4B3AE",
"~. c #A4ADB0",
"^. c #ABADB3",
"/. c #B3ACB6",
"(. c #B3B3B3",
"). c #BBB5B4",
"_. c #BBBBBB",
"`. c #B5B9B7",
"'. c #A7B6B3",
"]. c #D2AB82",
"[. c #DAB682",
"{. c #C7C2BF",
"}. c #BABAC6",
"|. c #C3BAC4",
" X c #C2B8D1",
".X c #BCC3CB",
"XX c #C3C3C3",
"oX c #CCCCCC",
"OX c #C5CDC0",
"+X c #C9D9CE",
"@X c #D2C8D0",
"#X c #D2D2D2",
/* pixels */
"I.c.I.I.b.c.XXI.9.i.q.t i -.oX`.M.i (.^.9.i a a a 9.z.9.9.q > a ",
"t.K.c.e.a e.#XY.K.I.0.a 9.c.I.g.q.a u.C.z.z.T.g.z.9.r q c.q.a `.",
"9.9.e.c.e.z.(.p m z.P.z s c.T.9.i.e.p t.9.P.T.z.9.> w c.^.e.P.oX",
"9.s u.P.e.m.T.i i m.c.c.A.T.c.9.e.oXR.R.i.P.9.m , 0 (.^.i.e.c.XX",
"Y.P.i.q.i c.T.p p b.s c.`.P.r i z.(.b.T.9.9.z q , P.P.9.z.9.e.oX",
"r e.P.P.9.m.b.e.P.m.m c.P.b.e.w c.z.z._ 0 c._.m.9._.XXK.9.s q.P.",
"0 0 a s.m N.c.c.c.c.9.(.e.i.n.J.^.i.q > _ ^.A.u.m.XXI.(.`.2.u.0.",
"a a a c.9._.oXP.q.9.e._.F.e.g.1.m.2.w w.P.Y.m.c.K.!.i.q.T.z.P.a ",
"q.u.e.z.e.XX{.T.J.R.I./.Z.8.<.= &.,.p..XN.~.}.A.z.e.a K.P.z.!.q.",
"e.z.9.c.c.c.c.e.c.Y.B.z.z.<.*.&.:.7.6.E.).I.T.Q.N.i z T.u.I.u.`.",
"N.i 9.9.i c.P.s p 8.r e.j.=.* 6 = >.;.b.^.Q.e.n.m t.K.P.z.P.^.I.",
"oXP.^.m.(.oXP.0 s s m i s =.c { 1 - 6 f.d.k.m.z q.`.A.c.A.c.q._ ",
"!.z.`.XX(.c.I.m.I.m 9.).!.W.+. .j h z 2.9.8.Z.n.I.P.e.Y.s.i c.XX",
"i 9.c.m.z.b.Y.P.e.8.Y.).n.] I n J U ` p.i.a x.'.T.Y.z.e.p i oXT.",
"e.a r i q.c.e.Y.XX^.Y.!.w.] V d H E ` 0.d.y W.u.m.A.z.P.P.w.T.(.",
"P.q.q i i 0.q I.m.q.u.^.i.l N Y G T ) e w ' z.8.e.a p C.z.z c.m.",
"M.p T.Y.9.i p m 2.0.s.1.y.@ D Q K C ( G.w.x.|.m.9.e.9.i i a XX!.",
"e.z e.m.z.z.T.z.s.m r t m.l L Q H ..O.z.m 9.+XT.K.P.e.a 9.z.T.b.",
"c.j.p g.q.C.T.z._ ; w b.T.l P Q W F o.V.r.b.`.s a z.A.9.i c.T.p ",
"e.oXT.P.u.R.w.a , 9 /.`.t.k A ! Q T P ].t.m.I.p a m.z.e.m.T.m.e.",
"z.T.m.Y._ 9.z 0 0 S.Z._ 3.x S Q W ! X.#.v c.C.p p c.m N._.J.q p ",
"m.z.z._ 0 c.XXm.9.|._.I.3.g Z R W W / [.@.N.l.s.P.m.i c.m.c.q.i ",
"`.z.e , 9.^.F.t.P._.~.!.D.a u # B ~ ^ | [ B.K.p.m.c.e.^.c.e.c.m.",
"m.0.w q.m.(.m.c.A.U.l.e.U.s.6 % O X 2 n._ }.{.~.q.9.q.`.m.g.c.c.",
"w e.m.{.R.A._.A.z.b.s K.K.} $.%.j f l t.s.XX_.^.m.R.F.T.F.2.e.m.",
"r .XR.Y._.P.R.`.C.t a D.i.y.x b g + 2 x.c.m.c.b.c.T.I.c.i.8.m.P.",
"Y._.m.C.P.(.e.c.a c.c.S.x.u $ 5.z   : 2.t z.P.e i 9.i p s.c.m.p ",
"XXc.z i.e.c.m.i e.T.L.I.n.*.* a.}.o < T.`.OXU.0 _ a i 9.p p 9.e.",
"J.w.s 9.e.9.m.b.W.R.f.^.s.% 3 ).K.. 4 .X(.v.Y.c.P.8.9.`.(.T.m.T.",
"i.i a M.t.a c.!.I.I.j.j.2.5.H.N.q o , F.e.z.I.Y.g.a N.).m.e.p i ",
"R.i r e.q.i Y.i.c.I.c.m.2.G.}./.d.0 4 s q.m.9.T.XXT.T.(.q.w.q.q ",
"_.9.w q , 9.P.a z.-.i @X Xb.m.M.R.-.: y -.q.r P.I.0.e._.u.9.9.t "
};
