/* XPM */
static char *bGVmdA__[] = {
/* columns rows colors chars-per-pixel */
"16 16 250 2 ",
"   c #595B5A",
".  c #6B524D",
"X  c #7F545B",
"o  c #605961",
"O  c #724C7B",
"+  c #6D6B6E",
"@  c #71746D",
"#  c #7F7168",
"$  c #696775",
"%  c #727071",
"&  c #757472",
"*  c #757374",
"=  c #767475",
"-  c #767B77",
";  c #757F77",
":  c #7F7E7A",
">  c #78797E",
",  c #926F09",
"<  c #873670",
"1  c #88596D",
"2  c #827E7B",
"3  c #927F78",
"4  c #BE970E",
"5  c #DFB500",
"6  c #DFAC1D",
"7  c #DCB31D",
"8  c #EABB09",
"9  c #CCA735",
"0  c #F5CB00",
"q  c #FBD506",
"w  c #9A8D59",
"e  c #BD8F51",
"r  c #AC925F",
"t  c #93816D",
"y  c #818179",
"u  c #83837B",
"i  c #858178",
"p  c #83867D",
"a  c #86877F",
"s  c #858E7D",
"d  c #848F7F",
"f  c #888A7F",
"g  c #9C8275",
"h  c #9D8676",
"j  c #9C8C72",
"k  c #9B937E",
"l  c #A38D66",
"z  c #AE8478",
"x  c #C08647",
"c  c #D3B15A",
"v  c #CEA869",
"b  c #735E85",
"n  c #787181",
"m  c #7C7B81",
"M  c #7E7E80",
"N  c #7E7F81",
"B  c #7A7D86",
"V  c #7C7C88",
"C  c #7F7C8F",
"Z  c #80388A",
"A  c #8A6788",
"S  c #847780",
"D  c #827F8A",
"F  c #847C89",
"G  c #847B8E",
"H  c #7A8382",
"J  c #7E8387",
"K  c #7B888E",
"L  c #7D8A92",
"P  c #838381",
"I  c #858386",
"U  c #878286",
"Y  c #898387",
"T  c #8E8586",
"R  c #848A86",
"E  c #888880",
"W  c #898A85",
"Q  c #8C8885",
"!  c #8A838A",
"~  c #898788",
"^  c #89848B",
"/  c #838B8D",
"(  c #84898F",
")  c #88898B",
"_  c #89898B",
"`  c #8E8888",
"'  c #8C8A8B",
"]  c #888D89",
"[  c #8F8E89",
"{  c #8D8D8B",
"}  c #8E8F8A",
"|  c #8A8B8D",
" . c #88898E",
".. c #8A898F",
"X. c #8D8D8D",
"o. c #8E8C8D",
"O. c #8D8F8C",
"+. c #8C8C8E",
"@. c #908C89",
"#. c #958D8A",
"$. c #928E8F",
"%. c #978F8D",
"&. c #8C908F",
"*. c #8C968D",
"=. c #8C968E",
"-. c #909285",
";. c #909189",
":. c #93968B",
">. c #90928D",
",. c #91918F",
"<. c #93928E",
"1. c #92938E",
"2. c #95908D",
"3. c #94908F",
"4. c #94958D",
"5. c #9C9B89",
"6. c #858591",
"7. c #878593",
"8. c #898890",
"9. c #8D8B90",
"0. c #898C91",
"q. c #8B8F90",
"w. c #8B8F92",
"e. c #8E8C91",
"r. c #8E8E90",
"t. c #8E8F91",
"y. c #8E8D92",
"u. c #8E8896",
"i. c #8C8A97",
"p. c #958295",
"a. c #908893",
"s. c #938E92",
"d. c #9C8C96",
"f. c #9A879B",
"g. c #928C98",
"h. c #988C9A",
"j. c #8E9492",
"k. c #8D9695",
"l. c #8F9497",
"z. c #8E9198",
"x. c #929091",
"c. c #929292",
"v. c #939393",
"b. c #949391",
"n. c #979390",
"m. c #969092",
"M. c #939592",
"N. c #949691",
"B. c #969791",
"V. c #919297",
"C. c #949295",
"Z. c #959097",
"A. c #939594",
"S. c gray58",
"D. c #959597",
"F. c #979596",
"G. c #9A9290",
"H. c #9A9790",
"J. c #9B9595",
"K. c #959891",
"L. c #949A90",
"P. c #959B91",
"I. c #939995",
"U. c #979994",
"Y. c #979996",
"T. c #999991",
"R. c #9C9C92",
"E. c #9A9994",
"W. c #9A9997",
"Q. c #989A97",
"!. c #9C9B96",
"~. c #9D9E96",
"^. c #91919B",
"/. c #949198",
"(. c #909599",
"). c #939498",
"_. c #979598",
"`. c #96959A",
"'. c #97969C",
"]. c #96979C",
"[. c #99939D",
"{. c #979998",
"}. c #939C99",
"|. c #979B9E",
" X c #969F9E",
".X c #999B98",
"XX c #9B9B9B",
"oX c #9F9999",
"OX c #999E98",
"+X c #9D9C98",
"@X c #9D9E98",
"#X c #9D9D9B",
"$X c #9E9D9B",
"%X c #9B999C",
"&X c #9E9E9C",
"*X c #A49193",
"=X c #AB9A92",
"-X c #A49B9C",
";X c #96A097",
":X c #97A09F",
">X c #A4A296",
",X c #A4A39F",
"<X c #A2A59E",
"1X c #A5B493",
"2X c #9498A3",
"3X c #9C9BA3",
"4X c #9B9CA1",
"5X c #9D9CA4",
"6X c #9D9DA5",
"7X c #9E9AA8",
"8X c #9A9EAA",
"9X c #A18AA7",
"0X c #AB8DA9",
"qX c #A29DA4",
"wX c #A29FA6",
"eX c #A89FA2",
"rX c #A099A9",
"tX c #97A0A7",
"yX c #9FA3A6",
"uX c #9EA3A7",
"iX c #A1A3A0",
"pX c #A4A2A3",
"aX c #A1A6A2",
"sX c #A4A4A2",
"dX c #A7A2A6",
"fX c #A1A5A6",
"gX c #AAA0A1",
"hX c #AFA4A0",
"jX c #A1A8A1",
"kX c #A6A8A7",
"lX c #ADADA3",
"zX c #AAA9A7",
"xX c #ADACA7",
"cX c #A1A0A8",
"vX c #A5A2A9",
"bX c #A1A6AC",
"nX c #A3A6AF",
"mX c #A4A4AC",
"MX c #A6A7AC",
"NX c #A7A8AC",
"BX c #AAAAA8",
"VX c #A8A9AB",
"CX c #ACAAAB",
"ZX c #AAA9AF",
"AX c #B4AAAB",
"SX c #AFB2AB",
"DX c #AEB6A9",
"FX c #B1B2AC",
"GX c #ACABB0",
"HX c #B0AEB3",
/* pixels */
"U.W.C.GX{.P ) nX( D.s.s.: 2 ! F ",
"W /.%X1.) r.K.4.5.J.[. .@ N.O.DX",
"} i.X.-./.z.~.i W.N.( w.&.pX^ 5.",
"= 6.&XlX( uXJ.f.9X* }.|.xXqX7X#.",
"U w.U.BX4X Xa.O Z 0XCXCX@.X.tX:X",
"dXI.aXY M H S 1 < A 5Xb.%.<X;XW.",
"$.jXyXeX} bX=Xe x 3 L OXgXs.f AX",
"` ; J G.>X8Xj 4 8 w K *.C.z.j.pX",
"T l.d $.u V g 5 6 z h.1X*.G | sX",
"-X2Xl.g.% v.h 7 0 v d.K.R r.W.A.",
"!.(.s Q 9.NXt 9 q c *X8.v.1.~.M ",
"G.B L.R.SXsXp.X , r hXGXc..X%Xv.",
"X.nXFXGX7.$.k l . # ~.kXN.&Xh.D.",
"BX].`.N.N.%XG b o + fX] p y ) r.",
"O.p E :.<X3X> i.  > NX.X{ sX$Xo.",
"r.* D %X$.3XrXnXm $ I W.vXwX} - "
};
