/* XPM */
static char *cmlnaHQ_[] = {
/* columns rows colors chars-per-pixel */
"32 32 195 2 ",
"   c #060910",
".  c #1A171E",
"X  c #101721",
"o  c #291E24",
"O  c #232126",
"+  c #382E36",
"@  c #47361C",
"#  c #402E3A",
"$  c #663A39",
"%  c #7B5F38",
"&  c #3F2F54",
"*  c #4A3252",
"=  c #553358",
"-  c #613A57",
";  c #5F2768",
":  c #4D3E65",
">  c #523964",
",  c #5F3976",
"<  c #6A2A7E",
"1  c #712C7C",
"2  c #65377B",
"3  c #5E4241",
"4  c #534C53",
"5  c gray34",
"6  c #5D5D5D",
"7  c #55565F",
"8  c #65785C",
"9  c #625E69",
"0  c #6B5071",
"q  c #636364",
"w  c #60646A",
"e  c #6C666C",
"r  c #6C6C6C",
"t  c #666865",
"y  c #776F6C",
"u  c #6B7469",
"i  c #73736E",
"p  c #7F766D",
"a  c #6A6873",
"s  c #72657A",
"d  c #6E7877",
"f  c #747474",
"g  c #7B747B",
"h  c #7C7C7C",
"j  c #767B77",
"k  c #8A6400",
"l  c #9A6218",
"z  c #B0721D",
"x  c #96722E",
"c  c #CB7E26",
"v  c #8F5E57",
"b  c #954A44",
"n  c #AA5F4C",
"m  c #A87653",
"M  c #80667F",
"N  c #857979",
"B  c #807B77",
"V  c #987578",
"C  c #99746B",
"Z  c #BC7062",
"A  c #A66F74",
"S  c #B37D7B",
"D  c #A46A69",
"F  c #90744D",
"G  c #C0724E",
"H  c #7D8175",
"J  c #7C857C",
"K  c #7C8B7D",
"L  c #BBA015",
"P  c #B49C32",
"I  c #CD870E",
"U  c #E39D17",
"Y  c #D9BD00",
"T  c #F2A90E",
"R  c #F8BA05",
"E  c #E1AE14",
"W  c #D9BA22",
"Q  c #EACE06",
"!  c #F9C406",
"~  c #EFD608",
"^  c #FDD401",
"/  c #FFDA01",
"(  c #F9D809",
")  c #F4CD12",
"_  c #FDDD10",
"`  c #EDC919",
"'  c #BE9F5C",
"]  c #BDAB4D",
"[  c #ACAA46",
"{  c #9B896A",
"}  c #888678",
"|  c #9C8476",
" . c #94827E",
".. c #B39A78",
"X. c #CD8741",
"o. c #D49A56",
"O. c #D39548",
"+. c #D2B742",
"@. c #FBA244",
"#. c #C3936F",
"$. c #D8A56E",
"%. c #C4A272",
"&. c #D4A27F",
"*. c #E2A97E",
"=. c #F5AA70",
"-. c #7E7E83",
";. c #767A83",
":. c #89398E",
">. c #92329D",
",. c #8A298A",
"<. c #A319A0",
"1. c #A12ABA",
"2. c #A630B8",
"3. c #8F4787",
"4. c #8E6A8E",
"5. c #936289",
"6. c #837B84",
"7. c #8A7A94",
"8. c #92769E",
"9. c #7D8285",
"0. c #848484",
"q. c #888486",
"w. c #8C8B86",
"e. c #84838A",
"r. c #848B8A",
"t. c #8C8C8C",
"y. c #8A848E",
"u. c #948D87",
"i. c #8D928B",
"p. c #91928C",
"a. c #949E8E",
"s. c #9C998B",
"d. c #8C8D94",
"f. c #8D819B",
"g. c #8A8C99",
"h. c #938D9A",
"j. c #958896",
"k. c #8D9594",
"l. c #8A919B",
"z. c #949494",
"x. c #9B9594",
"c. c #959A94",
"v. c #9D9A94",
"b. c #94929A",
"n. c #979B9B",
"m. c #9C9B9B",
"M. c #9A9099",
"N. c #A4939D",
"B. c #9EA78C",
"V. c #9EA09E",
"C. c #95A696",
"Z. c #B1A08E",
"A. c #A3A29D",
"S. c #A0A998",
"D. c #A3A983",
"F. c #9B8FA7",
"G. c #8F9CA5",
"H. c #9B9BA1",
"J. c #959AA4",
"K. c #A19BA2",
"L. c #A79AA5",
"P. c #B39EAF",
"I. c #9EA1A6",
"U. c #9FAAA5",
"Y. c #9CA6A8",
"T. c #9EB1AF",
"R. c #A3A3A3",
"E. c #ACA6A5",
"W. c #A7A8A4",
"Q. c #ABABA4",
"!. c #AAA5A9",
"~. c #ACACAC",
"^. c #A6A7AA",
"/. c #B2A6A9",
"(. c #ABB1A8",
"). c #B5B5A9",
"_. c #ADABB0",
"`. c #A7A4B4",
"'. c #AAB1B0",
"]. c #B3B3B3",
"[. c #B3B9B6",
"{. c #B3B5BA",
"}. c #BAB6BB",
"|. c #BBBBBB",
" X c #B2A7B5",
".X c #D9B382",
"XX c #C2BBB5",
"oX c #BBC0BA",
"OX c #C4C0BD",
"+X c #B6B8C6",
"@X c #C2C3C3",
"#X c #CCCCCC",
"$X c #C8C5C9",
"%X c #D6CECB",
"&X c #D3D2D4",
/* pixels */
"W.z.W.^.z.m.@XR.q.i.r.i f -.#X[.m.i ].'.0.f h h h q.d.0.q.t 5 h ",
"d.R.x.t.h t.&X~.K.^.q.h q.z.^.i.q.h i.A.z.z._.k.d.0.i r m.q.h [.",
"0.q.t.z.t.z.].j J p.R.6.j z.].0.z.i.h t.q.R.~.z.0.5 e c.~.t.W.#X",
"0.j t.R.t.m.~.f f m.z.b.H.~.z.q.t.$X^.W.i.R.0.h 6 q ].].z.t.m.@X",
"~.R.t.t.f z.~.j j b.j n.[.R.i f z._.x.~.0.0.h r 6 R.R.r.z.q.r.#X",
"u t.R.R.q.m.z.t.W.m.B x.R.z.t.r x.z.z.h q m.|.m.r.OXoXN.q.f t.R.",
"9 q h z.h V.x.b.z.z.q.].t.z.m.K.].d.r 6 J ].m.i.m.@XW.].[.0.t.q.",
"h h h z.0.|.&XR.t.0.t.|.m.t.z.z.m.e.e q.K.~.m.x.m.].d.t.!.z.R.j ",
"q.p.t.z.t.@XOX].I.N.E.].G.} 5.>.2 3.a.$XA.`.).Y.z.t.j K.R.z.].t.",
"t.z.0.n.z.m.b.i.H.E.A.p.r.5.2.1.< 1 8.P.{.!.E.].m.f h ~.t.W.p.].",
"m.f 0.q.f z.R.j i h d 0.z.5.<.,., = 2 K.T.~.t.m.0.t.N.V.k.R._.W.",
"&XR.~.m.[.#XK.q j t.d 9.s ;.:.; V { 0 w.K H.x.f t.[.U.m.A.x.t.-.",
"~.z.[.@X].m.W.m.A.6.H [.}.R.| x n o.F y.t.6.v.I.W.R.t.~.d.f x.OX",
"f q.b.m.z.z.~.V.p.6.W.oXm.r.[ ! I X.] F.M.B x.(.!.~.z.t.j j #X~.",
"t.h i f q.m.t.~.$X/.!.Q.t.r.+.R E k P 9.6.f Q.b.m.R.z.R.H.q.~.].",
"R.r.r f f q.r R.C.j.r.}.h.} ` R R L z p f y.a.;.t.h j m.z.h m.m.",
"z.j ~.~.0.j j 6.N y.d.K u.8 x I ^ ! l s.w.k.XXR.q.t.q.f f h @X~.",
"t.} r.N.z.z.!.z.i.h d u h...O.U ^ ( n 7.H g.&X`.R.R.t.j q.k._.x.",
"b.z.J d.t.m.~.z.J 6 r x. X.X@.R / Q Z z.i.p.(.j h z.R.q.f x.~.j ",
"z.@X!.R.t.R.t.j 6 e Q.E.Z.$.T / / ) m | t.m.'.g j m.z.t.m.~.m.d.",
"z.~.m.W.} -.-.q w H.S.r...%.) _ ^ _ { A g J.U.p j x.h m.|.K.u j ",
"m.z.z.0.q m.OXn.e.|.oX~.*.' ^ ^ ~ W D.S 6.m.c.j.R.m.j m.m.c.q.f ",
"[.z.r 6 0._.m.k.K.OX!./..X] Q Y % - f | B S.s.b.m.x.t._.x.t.m.m.",
"m.q.e r.m.].m.x.I.(.z.u.'.} @ o + > s x.6.+X%XY.q.q.t.[.m.z.z.b.",
"r t.m.XX^.R.|.H.x.r.h n.W. .v b o.=.#.p.d.$X].].I.W.H.~.m.0.t.m.",
"f OX~.W.|.W.~.].m.f h W.z.x.3 $ C D V z.c.x.m.d.n.!.W.m.z.-.m.R.",
"^.|.m.m.R.].t.n.9.i.R.E.z.k.. + F.= * h u p.W.d f 0.f j t.x.m.j ",
"@Xc.-.t.t.z.m.f t.!.E.m.H.g.X 7 @Xf.: g.[.#XK.t h h f q.j j 0.t.",
"A.r.j q.t.0.m.x.`.!.t.Q.k.w   a ).a * f.}.m.^.s.W.h 0.[.}.~.m.~.",
"d.g h z.t.h m._.!.W.p.i.h w O 4 J s 7.f.z.b.!.^.k.J N.|.m.t.j f ",
"W.f r t.t.i ^.i.R.V.z.m.H.a 6 H.g.-.F.7.-.J.q.^.@X!.~.].r.q.q.r ",
"|.0.r t q e.A.-.i.0.i !.K.e a J.^.K i H.+XR.i W.R.t.t.|.t.e.q.i "
};
