/* XPM */
static char *cmlnaHQ_[] = {
/* columns rows colors chars-per-pixel */
"16 16 252 2 ",
"   c #49444B",
".  c #474C4F",
"X  c #6A5248",
"o  c #6A437C",
"O  c #6E706D",
"+  c #717370",
"@  c #727176",
"#  c #777775",
"$  c #7A7176",
"%  c #72757E",
"&  c #7C777E",
"*  c #797B78",
"=  c #7C7C7A",
"-  c #7E7F7A",
";  c #9C7613",
":  c #823579",
">  c #815747",
",  c #834F65",
"<  c #817076",
"1  c #7F8579",
"2  c #7C867B",
"3  c #79867F",
"4  c #D4A309",
"5  c #DEB80D",
"6  c #E6BF00",
"7  c #D0962A",
"8  c #DEBE2B",
"9  c #F4C40C",
"0  c #F7CD09",
"q  c #F2CF15",
"w  c #95814C",
"e  c #9A854E",
"r  c #BE8A41",
"t  c #A7815C",
"y  c #AC8C5B",
"u  c #B98752",
"i  c #99856A",
"p  c #838379",
"a  c #80807E",
"s  c #83827E",
"d  c #958576",
"f  c #92947C",
"g  c #A78B63",
"h  c #B69E72",
"j  c #C9B173",
"k  c #716283",
"l  c #6F7583",
"z  c #787181",
"x  c #7B728D",
"c  c #88449B",
"v  c #8B6E80",
"b  c #807F85",
"n  c #837E85",
"m  c #8B7E85",
"M  c #88748F",
"N  c #847B8E",
"B  c #806A90",
"V  c #798382",
"C  c #7C8083",
"Z  c #7F8386",
"A  c #838383",
"S  c #848381",
"D  c #868781",
"F  c #858384",
"G  c #848484",
"H  c #8B8680",
"J  c #878984",
"K  c #878986",
"L  c #8A8D82",
"P  c #8F8C83",
"I  c #8D8F82",
"U  c #8A8D84",
"Y  c #8D8E86",
"T  c #848589",
"R  c #868688",
"E  c #85868B",
"W  c #8B8189",
"Q  c #8A858B",
"!  c #8F8488",
"~  c #88878C",
"^  c #8E878E",
"/  c #85898A",
"(  c #848A8A",
")  c #868B8F",
"_  c #848D8C",
"`  c #898989",
"'  c #8A8889",
"]  c #8B8D88",
"[  c #898E8A",
"{  c #8D8E89",
"}  c #8D8D8B",
"|  c #8E8F8A",
" . c #8B8C8E",
".. c #8C8E8D",
"X. c #91888B",
"o. c #928F8A",
"O. c #91888D",
"+. c #918B8D",
"@. c #918D8E",
"#. c #968D8E",
"$. c #8D9089",
"%. c #8F908B",
"&. c #8B908C",
"*. c #8A908E",
"=. c #8D948D",
"-. c #929383",
";. c #919189",
":. c #92938B",
">. c #949488",
",. c #92938E",
"<. c #94938E",
"1. c #94938F",
"2. c #91948D",
"3. c #90968C",
"4. c #90958E",
"5. c #93968F",
"6. c #989189",
"7. c #98958E",
"8. c #878791",
"9. c #848597",
"0. c #898792",
"q. c #868990",
"w. c #8C8B90",
"e. c #898E91",
"r. c #8D8C91",
"t. c #8E8D92",
"y. c #8D8E92",
"u. c #8D8997",
"i. c #8A8F95",
"p. c #938690",
"a. c #908893",
"s. c #938992",
"d. c #918E95",
"f. c #988F90",
"g. c #9D8897",
"h. c #908E99",
"j. c #928F98",
"k. c #899291",
"l. c #8E9196",
"z. c #8D919C",
"x. c #8D969F",
"c. c #919390",
"v. c #919193",
"b. c #949293",
"n. c #949590",
"m. c #959492",
"M. c #919095",
"N. c #939194",
"B. c #919297",
"V. c #929397",
"C. c #949297",
"Z. c #929697",
"A. c #969495",
"S. c #979596",
"D. c gray59",
"F. c #989292",
"G. c #989296",
"H. c #919891",
"J. c #9A9D92",
"K. c #9A9994",
"L. c #989896",
"P. c #999B96",
"I. c #9D9894",
"U. c #9F9A96",
"Y. c #91949B",
"T. c #92979B",
"R. c #969499",
"E. c #969799",
"W. c #979799",
"Q. c #95949A",
"!. c #96939E",
"~. c #97969C",
"^. c #989399",
"/. c #98969B",
"(. c #929898",
"). c #959B99",
"_. c #9A9899",
"`. c #9E9898",
"'. c #9F9B9A",
"]. c #989D99",
"[. c #989C9B",
"{. c #999E9A",
"}. c #99989D",
"|. c #98999E",
" X c #9F9E9C",
".X c #9F9F9D",
"XX c #A0878A",
"oX c #B49F84",
"OX c #A19798",
"+X c #A29E9B",
"@X c #A19B9D",
"#X c #A69E9C",
"$X c #9EA093",
"%X c #9BA195",
"&X c #9CA497",
"*X c #99A099",
"=X c #9FA59B",
"-X c #9AA09C",
";X c #9EA09D",
":X c #9EA89F",
">X c #A1A396",
",X c #A5A29B",
"<X c #A0A09E",
"1X c #A1A19F",
"2X c #A5A29D",
"3X c #A4A79C",
"4X c #A9A59C",
"5X c #9789A2",
"6X c #9D88A7",
"7X c #9E8AA6",
"8X c #9395A2",
"9X c #959CA4",
"0X c #9E9FA1",
"qX c #9E9DA2",
"wX c #9F9EA6",
"eX c #9F9BA9",
"rX c #A29BA2",
"tX c #A09EA3",
"yX c #A094A8",
"uX c #9CA0A1",
"iX c #9DA1A2",
"pX c #9FA3A2",
"aX c #9AA5A1",
"sX c #9BA3A6",
"dX c #9FA5A5",
"fX c #A0A2A1",
"gX c #A3A1A2",
"hX c #A2A0A3",
"jX c #A2A1A6",
"kX c #A3A2A7",
"lX c #A7A7A7",
"zX c #ABA1A0",
"xX c #AAA7A0",
"cX c #AAA6A3",
"vX c #ACA3A4",
"bX c #A7A8A3",
"nX c #A7ACA5",
"mX c #A8A8A6",
"MX c #AAABA6",
"NX c #ACABA7",
"BX c #A2A2AA",
"VX c #A5A6AA",
"CX c #A2AAAC",
"ZX c #AEAAA9",
"AX c #B2A5AC",
"SX c #ABB0AA",
"DX c #B2B1AC",
"FX c #A5A0B4",
"GX c #A4A8B1",
"HX c #ABABB5",
"JX c #B1ACB0",
"KX c #B2B2B0",
/* pixels */
"tX!.F.DXB.G D GX} b.t.Y.Z = S A ",
"2 H.E.5...d.I.;.>./.|./ O D.B.KX",
"P 7.u.J 5.i.&Xp OXE.T | ,.BXG K.",
"$ W FXMXY dX3.7X7Xz [.K.ZXjXuX| ",
"_ 8.9X3XOX@Xg.c o eXSXZX^ } {.fX",
"=XE.:XL m n M : , < ].b.G.iX).'.",
"6.AX%XfXX.sXqXu r i q.}.2X(.q.vX",
"~ & 3 x.#XaXf 5 5 > 9.E.-.k.z.zX",
"H 8XK O.p V #.7 9 t 5XCX=.S Q bX",
"1XT.J.O.@ #.h 9 q y ! &X( d.^.,.",
"+Xi.L s.w.4Xj 0 8 y OX%.[ ;.fX~ ",
"1.% tXtXvX4XoX; X < OXMXZ.+X/.d.",
"@.HXVXMXP 5.p.X e d 2XBXB.3X5.5.",
"JXv. X| 5.fX8.  B k fXt.z s } Y ",
"' = &.].lXE.+ . N x eXwX;.%X}.t.",
";.* V l.b.#.A l %.Q L._.1XlXh.# "
};
