/* XPM */
static char *YmFjaw__[] = {
/* columns rows colors chars-per-pixel */
"32 32 178 2 ",
"   c #12101D",
".  c #181824",
"X  c #201E29",
"o  c #381D3C",
"O  c #3A2021",
"+  c #29283A",
"@  c #382843",
"#  c #512E42",
"$  c #4D3555",
"%  c #5B305D",
"&  c #71197D",
"*  c #78346F",
"=  c #613371",
"-  c #544E4E",
";  c #494B57",
":  c gray34",
">  c #55545A",
",  c #5D5D5D",
"<  c #64484A",
"1  c #75635F",
"2  c #565461",
"3  c #585B64",
"4  c #5F6C72",
"5  c #5E7270",
"6  c #636363",
"7  c #686866",
"8  c #67666C",
"9  c #6C6C6C",
"0  c #646E6F",
"q  c #7C6263",
"w  c #6A716A",
"e  c #72736B",
"r  c #686D71",
"t  c #726C76",
"y  c #796E7E",
"u  c #697078",
"i  c #747474",
"p  c #74747A",
"a  c #7C7C7C",
"s  c #7A7875",
"d  c #834C2E",
"f  c #9D552F",
"g  c #885337",
"h  c #A15933",
"j  c #A6632C",
"k  c #A6762C",
"l  c #EF7D0A",
"z  c #825A5B",
"x  c #87494A",
"c  c #A8794B",
"v  c #806B68",
"b  c #837363",
"n  c #877B7E",
"m  c #95747D",
"M  c #BB7B60",
"N  c #C07B5C",
"B  c #6E817B",
"V  c #7C857C",
"C  c #B58833",
"Z  c #CF940C",
"A  c #D98B15",
"S  c #D48810",
"D  c #DE9417",
"F  c #E8850E",
"G  c #F19E00",
"H  c #E08918",
"J  c #E89305",
"K  c #EDA304",
"L  c #FCAA08",
"P  c #EEB10B",
"I  c #F7BE05",
"U  c #E1BA18",
"Y  c #C58523",
"T  c #EDC607",
"R  c #F7C107",
"E  c #FFC500",
"W  c #FCCA00",
"Q  c #FDDC03",
"!  c #F9D906",
"~  c #BB9A55",
"^  c #83867F",
"/  c #8F857B",
"(  c #B08B61",
")  c #AB8C70",
"_  c #A99579",
"`  c #BC9F75",
"'  c #CF9E51",
"]  c #CAA844",
"[  c #F8AA5B",
"{  c #C69E7A",
"}  c #E29F72",
"|  c #D5A167",
" . c #791D8C",
".. c #792587",
"X. c #7E7E81",
"o. c #961E9A",
"O. c #A01E9A",
"+. c #93228C",
"@. c #943B83",
"#. c #802B92",
"$. c #9D3E9A",
"%. c #B51ABE",
"&. c #A926B4",
"*. c #A739AC",
"=. c #8D4092",
"-. c #837A85",
";. c #90728A",
":. c #B76FB9",
">. c #A21FCF",
",. c #A921C9",
"<. c #7A8185",
"1. c #848484",
"2. c #838B85",
"3. c #8C8C84",
"4. c #84858A",
"5. c #8C8C8C",
"6. c #888688",
"7. c #948C8C",
"8. c #8C928C",
"9. c #87928E",
"0. c #96988C",
"q. c #8E8B91",
"w. c #898793",
"e. c #938A98",
"r. c #8E9398",
"t. c #949494",
"y. c #9B9C94",
"u. c #96969A",
"i. c #9C959B",
"p. c #9C9B9C",
"a. c #959A93",
"s. c #A18788",
"d. c #A89696",
"f. c #B19997",
"g. c #9BA29C",
"h. c #95A396",
"j. c #BFA185",
"k. c #A3A29E",
"l. c #ACAA9E",
"z. c #8C99A1",
"x. c #9D9CA3",
"c. c #9E9CA9",
"v. c #A39BA1",
"b. c #A29EAD",
"n. c #9DA1A4",
"m. c #9BAAA5",
"M. c #9EA6B3",
"N. c #A3A3A3",
"B. c #A9A9A4",
"V. c #A6A6AB",
"C. c #A6ABAA",
"Z. c #ACACAC",
"A. c #AAA3A5",
"S. c #A8B1AC",
"D. c #B1B1AC",
"F. c #AEAEB3",
"G. c #B3ACB5",
"H. c #B3B3B3",
"J. c #B5B6BB",
"K. c #B9B6BC",
"L. c #BBBBBB",
"P. c #B1BCB6",
"I. c #AAB3B8",
"U. c #E9B495",
"Y. c #C9AEA7",
"T. c #C5B3AF",
"R. c #C4BBB6",
"E. c #BAC0BC",
"W. c #C0C0BE",
"Q. c #BCBBC2",
"!. c #C5BAC0",
"~. c #C3C3C3",
"^. c #CCCCCC",
"/. c #CECED0",
"(. c #D2D2D2",
"). c #D8D7DF",
"_. c #D9D4D1",
"`. c #D2C8C6",
/* pixels */
"B.t.B.B.u.u.W.B.4.5.6.9 p 1.^.H.u.p D.H.4.i <.a a 1.t.1.4.7 : a ",
"q.N.u.5.a 5.(.C.N.B.6.s ^ u.V.t.5.s 9.d.t.a.B.t.5.1.e 9 u.2.a K.",
"1.4.5.t.5.t.H.a a q.N.^ a t.H.V 5.t.a q.6.d.H.5.1.: 7 u.Z.5.N.^.",
"1.s 5.N.5.p.Z.i s p.t.u.p.B.t.6.8.~.C.B.q.N.1.V 6 6 H.F.t.5.p.~.",
"Z.N.5.5.i y.Z.p a u.i u.P.d.e p u.Z.u.Z.1.1.a 9 , N.N.6.t.1.5.^.",
"e 5.N.N.4.u.t.5.N.p.^ u.N.u.5.7 t.p.t.a 6 y.~.t.4.W.L.k.1.s 5.k.",
", 7 a t.a x.y.t.i.u.6.D.q.8.u.N.H.5.i : n H.y.t.p.W.N.H.P.n 5.4.",
"a X.a t.1.L.(.N.5.V 5.L.x.t.t.5.u.6.7 4.n.Z.x.t.k.H.t.4.Z.t.N.a ",
"4.5.5.t.5.~.Q.D.n.v.A.F.a.;.=.= * -.b.R.k.k.Q.k.t.5.s N.N.t.Z.5.",
"5.t.1.u.u.y.u.8.0.C.v.z.w.$.+.#.o.:.M.m.R.V.k.J.p.p a Z.5.B.8.H.",
"p.p 1.1.s t.N.a s <.i V s.&.&.O.%.*.d.g.A.Q.0.t.^ t.p.N.8.N.F.B.",
"/.N.D.p.H.^.x.6 y 4.a ) | @.>.&.,.@.} j.<.e.n.e 6.H.N.u.N.u.5.-.",
"D.t.H.~.H.p.B.u.S.s n U.[ f  ...& h [ { 2.1.x.i.B.N.5.Z.8.i u.R.",
"p 1.u.y.t.t.Z.k.3.1.n.T.N A j k C S M f.t.V t.G.Z.A.t.5.a p ^.F.",
"5.a e p 6.u.5.Z.R.F.C.C.d K R Q Q K g -.2.t G.8.p.x.t.N.N.2.Z.H.",
"k.5.9 t s 2.9 N.g.7.4.Y.Y E Q ! W I Z b 5 3.d.B 5.a a p.t.a u.p.",
"t.a Z.Z.^ i a 1.<.3.t.<.( P E L l F ' 0.2.u.J.n.4.5.1.i i a ~.Z.",
"5.a 5.p.t.t.Z.t.3.-.w u c._ D J A ` e.e./ 8._.l.N.k.8.s 4.t.Z.u.",
"t.t.a 5.4.p.S.t.^ 3 7 y.B.] I E E ~ u.a./ 5.I.s a t.N.4.e u.B.a ",
"t.~.Z.N.q.B.6.a > 0 D.D._ U R U A c 8.h.7.x.I.p a u.t.5.p.Z.p.5.",
"t.D.u.Z.^ -.V 6 8 d.h.w.t $ $ $ % + 3 q.e y.A.p a u.a p.L.n.e p ",
"u.t.t.1.6 u.!.u.4.R.E.C.q # @ + o O v Z.V y.i.3.N.u.s u.d.u.6.s ",
"K.t.9 , 1.H.p.t.k.P.Z.K.m g n r < x z 9.<.p.x.8.p.u.5.D.u.5.u.p.",
"p.2.7 6.p.D.p.t.c.H.0.5.0   q 4.; . - 0.<.!.^.V.2.6.5.H.n.8.u.a.",
"7 5.p.~.B.N.L.x.t.5.s N.q.X p q.2 . p y.5.W.L.D.d.C.p.Z.v.1.5.p.",
"i ~.A.V.L.N.B.H.p.a a B.t.> 3 G.2 ; 5.u.t.N.p.5.u.Z.B.u.8.1.p.N.",
"B.L.p.p.N.H.5.u.X.5.g.N.z.8 e.K.b.3 -.<.i t.x.p i 1.i s 8.t.u.a ",
"~.i.V 5.5.u.p.s 5.H.k.p.x.Z.J.5.).Z.F.p.L.^.N.7 V a p 1.a s 1.5.",
"k.6.p 1.5.<.p.y.V.B.5.Z.8.p u.~.A.t.F.~.D.y.Z.t.N.^ 1.H.J.Z.p.Z.",
"q.p V u.5.a i.D.V.N.t.5.a i /.B.-.1.u.x.t.p.N.N.q.a k.K.p.5.a i ",
"Z.i e 5.5.i C.5.p.B.a.k.x.4.Z.Z.5.a i s 4.u.1.Z.~.Z.Z.H.5.4.4.7 ",
"L.^ 9 7 , 1.n.n t.-.e N.u.X.u.p.B.5.6 9 a 5.9 B.N.5.5.L.5.1.6.e "
};
