/* XPM */
static char *YmFjaw__[] = {
/* columns rows colors chars-per-pixel */
"16 16 251 2 ",
"   c #5C372F",
".  c #4F3E51",
"X  c #64394D",
"o  c #504E5B",
"O  c #635C63",
"+  c #715A6C",
"@  c #6C6167",
"#  c #68676C",
"$  c #706E6F",
"%  c #706F7F",
"&  c #7A6F7D",
"*  c #6F7072",
"=  c #6F7B71",
"-  c #737077",
";  c #767475",
":  c #757776",
">  c #70787A",
",  c #7D7F7E",
"<  c #AA4C4A",
"1  c #B75E4C",
"2  c #817776",
"3  c #807F7B",
"4  c #75807C",
"5  c #7F827B",
"6  c #7D8B7E",
"7  c #C59F18",
"8  c #DEAE0C",
"9  c #F0AC0B",
"0  c #F7B400",
"q  c #D79D22",
"w  c #FBCA03",
"e  c #B7824E",
"r  c #A18351",
"t  c #BF9D55",
"y  c #BBA456",
"u  c #808076",
"i  c #81807E",
"p  c #86817E",
"a  c #82847F",
"s  c #8E857C",
"d  c #89897D",
"f  c #908A7E",
"g  c #9C8A7E",
"h  c #A8927A",
"j  c #B69576",
"k  c #C08E49",
"l  c #797880",
"z  c #7E7C87",
"x  c #941EB0",
"c  c #8131A0",
"v  c #874F90",
"b  c #897A91",
"n  c #A76B84",
"m  c #A37894",
"M  c #A144AC",
"N  c #7C8282",
"B  c #7B8483",
"V  c #7F8287",
"C  c #808082",
"Z  c #848580",
"A  c #808686",
"S  c #868686",
"D  c #8A8780",
"F  c #838B80",
"G  c #818B82",
"H  c #858881",
"J  c #878A81",
"K  c #828B86",
"L  c #848985",
"P  c #8E8983",
"I  c #8E8F81",
"U  c #898886",
"Y  c #86858A",
"T  c #8A858B",
"R  c #878988",
"E  c #868C8C",
"W  c #878C8F",
"Q  c #8A8A88",
"!  c #8C8B89",
"~  c #8E8A8B",
"^  c #888D89",
"/  c #8E8D89",
"(  c #8D8E89",
")  c #8E8D8B",
"_  c #8A898E",
"`  c #898A8E",
"'  c #8B8C8E",
"]  c #8E8E8E",
"[  c #90868F",
"{  c #91878F",
"}  c #918889",
"|  c #908B88",
" . c #908F8A",
".. c #958A8E",
"X. c #938F8C",
"o. c #948F8C",
"O. c #988D89",
"+. c #9E8F8C",
"@. c #8C9082",
"#. c #8F9082",
"$. c #8E9681",
"%. c #899587",
"&. c #8F918C",
"*. c #8E958E",
"=. c #929286",
"-. c #939089",
";. c #90938A",
":. c #92918F",
">. c #94918C",
",. c #95918E",
"<. c #92958E",
"1. c #99918F",
"2. c #919888",
"3. c #90988B",
"4. c #949889",
"5. c #989A8F",
"6. c #888691",
"7. c #848D96",
"8. c #8B8891",
"9. c #8E8B92",
"0. c #8A8F93",
"q. c #8D8C91",
"w. c #8E8F93",
"e. c #8B8E95",
"r. c #8E8E96",
"t. c #8F8B9A",
"y. c #8F8F99",
"u. c #918C93",
"i. c #908E93",
"p. c #918E95",
"a. c #908F97",
"s. c #978D96",
"d. c #9C8A9A",
"f. c #8F9094",
"g. c #8E9397",
"h. c #8D9A91",
"j. c #8F9498",
"k. c #8E9699",
"l. c #909291",
"z. c #959593",
"x. c #919095",
"c. c #919096",
"v. c #929196",
"b. c #969197",
"n. c #929695",
"m. c #959794",
"M. c #949597",
"N. c #979797",
"B. c #999490",
"V. c #9E9693",
"C. c #989495",
"Z. c #989697",
"A. c #939995",
"S. c #949995",
"D. c #979994",
"F. c #959A96",
"G. c #999894",
"H. c #989A97",
"J. c #939099",
"K. c #909398",
"L. c #949398",
"P. c #939498",
"I. c #93969B",
"U. c #979598",
"Y. c #97969B",
"T. c #95949C",
"R. c #97949D",
"E. c #95959F",
"W. c #94979E",
"Q. c #97969E",
"!. c #97979F",
"~. c #98909B",
"^. c #9E959A",
"/. c #98979C",
"(. c #9B959F",
"). c #939999",
"_. c #969F9A",
"`. c #979C9F",
"'. c #9A9899",
"]. c #999B98",
"[. c #989A99",
"{. c #9E9A99",
"}. c #9B9D98",
"|. c #9A9C9B",
" X c #9E9D99",
".X c #9D9C9A",
"XX c #9E9D9B",
"oX c #999A9C",
"OX c #9A9A9C",
"+X c #9B999E",
"@X c #9A999F",
"#X c #999A9E",
"$X c #9B9D9C",
"%X c #9F9D9E",
"&X c #B2938E",
"*X c #A09F9B",
"=X c #A09A9C",
"-X c #A39F9E",
";X c #B3949A",
":X c #B19E98",
">X c #9EA093",
",X c #9DA492",
"<X c #99A099",
"1X c #9AA39E",
"2X c #9CA09F",
"3X c #9DA79E",
"4X c #A1A39E",
"5X c #A5A69E",
"6X c #9797A1",
"7X c #9A9FA2",
"8X c #A19CA2",
"9X c #A59EAE",
"0X c #A99EAC",
"qX c #B19DA6",
"wX c #A79EB1",
"eX c #9BA1A1",
"rX c #9FA0A2",
"tX c #9FA0A5",
"yX c #9DA7A9",
"uX c #A0A7A0",
"iX c #A5A4A0",
"pX c #A4A4A2",
"aX c #A1A0A6",
"sX c #A1A2A6",
"dX c #A6A0A4",
"fX c #A5A7A4",
"gX c #A7A7A5",
"hX c #A8A2A4",
"jX c #A5AAA4",
"kX c #A6ABA4",
"lX c #A8A8A0",
"zX c #AAACA1",
"xX c #A9AAA4",
"cX c #AAA9A7",
"vX c #AAABA6",
"bX c #ABACA7",
"nX c #A7A2A8",
"mX c #A7A5A8",
"MX c #A4A5AA",
"NX c #AAA0A8",
"BX c #ACA2AA",
"VX c #A9A4AB",
"CX c #ABA6AA",
"ZX c #ACA7AD",
"AX c #AAA8AB",
"SX c #ADAEA9",
"DX c #AEADAB",
"FX c #B0A5AD",
"GX c #B0B3AC",
"HX c #A9ADB0",
"JX c #B4AEB2",
/* pixels */
"$X{.B.DXA.B 6.BXD ^.s.#.a z u U ",
"Y / G.J._ <.F.0.6XL.z.' * N.N.cX",
"i.&.l.a.~.>.,X6 G.P.G 0.w.5X6.*X",
"; Q oXfXw.8XO.d.1.l 1XF.AXpXN./ ",
"S ,.oXjX_.=Xm c v qXkXbX~ a.%X5X",
"tX-.VXE , s n x M &X>X~.1.oX6XF.",
"Y.iXaXuX0.:Xe < 1 j J 6XhXF.^ ZX",
"Z , V $.wX;X7 w 0 r N F.u.3.I VX",
"( Y.~ I V C t 9 q h 7.GX..C J mX",
"'.t.Q.w.% >.y 8 k O.j.5.} w.A.N.",
".XoXR d =.fX+ X   2 z.d O.g.7Xp ",
"v.: .X.XCX8XO @ . $ ].JXX.eXg.V.",
"w.cXzXDXT b.# > o J Q.VX.X|.P.>.",
"HXa.(.Q.P.%X] yXF.&.MXt.5 5 W ( ",
"K P d 3.3X|.{ lXY.fXaXrX-.8XQ.*.",
"%.& b /.h.m.{ BX[ - L 3.lXhXv.= "
};
