/* XPM */
static char *d2Fsa3N0b25l[] = {
/* columns rows colors chars-per-pixel */
"16 16 59 1 ",
"  c #6C6C6C",
". c gray44",
"X c #717171",
"o c #727272",
"O c gray45",
"+ c #797979",
"@ c gray48",
"# c #7B7B7B",
"$ c gray49",
"% c #7E7E7E",
"& c #818181",
"* c gray51",
"= c #838383",
"- c #848484",
"; c gray52",
": c #868686",
"> c gray53",
", c #888888",
"< c #898989",
"1 c gray54",
"2 c #8B8B8B",
"3 c gray55",
"4 c #8D8D8D",
"5 c #8E8E8E",
"6 c gray56",
"7 c #909090",
"8 c gray57",
"9 c #929292",
"0 c #939393",
"q c gray58",
"w c #959595",
"e c gray59",
"r c #979797",
"t c #989898",
"y c gray60",
"u c #9A9A9A",
"i c #9B9B9B",
"p c gray61",
"a c #9D9D9D",
"s c gray62",
"d c #9F9F9F",
"f c #A0A0A0",
"g c gray63",
"h c #A2A2A2",
"j c gray64",
"k c #A4A4A4",
"l c #A5A5A5",
"z c gray65",
"x c #A7A7A7",
"c c gray66",
"v c #A9A9A9",
"b c #AAAAAA",
"n c gray67",
"m c #ACACAC",
"M c gray68",
"N c #AEAEAE",
"B c #AFAFAF",
"V c gray69",
"C c #B1B1B1",
/* pixels */
"u0eBe&1c:u30&$1&",
"100010u1uuu1X00V",
"100303d:e0:30x1d",
"X3uV3uueuXduxgu:",
"31ugude33ccc13dx",
"dec3&$10ceg00deu",
"eggg3xu03::ugu3x",
":$&egg3@3@&ee10g",
":e10:&&:g33B1&1g",
"dee3 00B1ueu13de",
"d0&30g:u001100d&",
"0+ddcdu:X1dB3d00",
"3xxB13gd11dxede0",
"ceu30duuged3:@01",
"111ux0:Bexgg3gu1",
"0X$ee03g1X:exx3@"
};
