/* XPM */
static char *d2Fsa3N0b25l[] = {
/* columns rows colors chars-per-pixel */
"32 32 118 2 ",
"   c gray33",
".  c gray34",
"X  c #5A5A5A",
"o  c #5D5D5D",
"O  c gray37",
"+  c #5F5F5F",
"@  c #606060",
"#  c gray38",
"$  c #626262",
"%  c gray39",
"&  c #646464",
"*  c #656565",
"=  c #676767",
"-  c #686868",
";  c DimGray",
":  c #6A6A6A",
">  c gray42",
",  c #6C6C6C",
"<  c #6D6D6D",
"1  c gray43",
"2  c #6F6F6F",
"3  c gray44",
"4  c #717171",
"5  c #727272",
"6  c gray45",
"7  c #747474",
"8  c gray46",
"9  c #767676",
"0  c #777777",
"q  c gray47",
"w  c #797979",
"e  c gray48",
"r  c #7B7B7B",
"t  c #7C7C7C",
"y  c gray49",
"u  c #7E7E7E",
"i  c gray50",
"p  c #808080",
"a  c #818181",
"s  c gray51",
"d  c #838383",
"f  c #848484",
"g  c gray52",
"h  c #868686",
"j  c gray53",
"k  c #888888",
"l  c #898989",
"z  c gray54",
"x  c #8B8B8B",
"c  c gray55",
"v  c #8D8D8D",
"b  c #8E8E8E",
"n  c gray56",
"m  c #909090",
"M  c gray57",
"N  c #929292",
"B  c #939393",
"V  c gray58",
"C  c #959595",
"Z  c gray59",
"A  c #979797",
"S  c #989898",
"D  c gray60",
"F  c #9A9A9A",
"G  c #9B9B9B",
"H  c gray61",
"J  c #9D9D9D",
"K  c gray62",
"L  c #9F9F9F",
"P  c #A0A0A0",
"I  c gray63",
"U  c #A2A2A2",
"Y  c gray64",
"T  c #A4A4A4",
"R  c #A5A5A5",
"E  c gray65",
"W  c #A7A7A7",
"Q  c gray66",
"!  c #A9A9A9",
"~  c #AAAAAA",
"^  c gray67",
"/  c #ACACAC",
"(  c gray68",
")  c #AEAEAE",
"_  c #AFAFAF",
"`  c gray69",
"'  c #B1B1B1",
"]  c #B2B2B2",
"[  c gray70",
"{  c #B4B4B4",
"}  c gray71",
"|  c #B6B6B6",
" . c #B7B7B7",
".. c gray72",
"X. c #B9B9B9",
"o. c gray73",
"O. c #BBBBBB",
"+. c #BCBCBC",
"@. c gray74",
"#. c gray",
"$. c gray75",
"%. c #C0C0C0",
"&. c #C1C1C1",
"*. c gray76",
"=. c #C3C3C3",
"-. c gray77",
";. c #C5C5C5",
":. c #C6C6C6",
">. c #C8C8C8",
",. c gray79",
"<. c gray80",
"1. c #CDCDCD",
"2. c #CECECE",
"3. c #D0D0D0",
"4. c gray82",
"5. c #D2D2D2",
"6. c LightGray",
"7. c gray83",
/* pixels */
"W C W W C D &.W f n l , 9 s >.[ D 9 [ ( f 9 y y y f M s l > . q ",
"n I C n q n 4.! L I l y f C ! C l q n L M M ( M M f 4 > D f y ..",
"s f n C l C [ q y C I s q M ( s n M y n f I ( C s . > D ( l W >.",
"f q n L n L ! 9 9 D n D I ( D f n ;.W W n W f y $ $ [ ( M n D ;.",
"! I M l 4 C ( 9 q L 9 D { D 4 4 M ( D ( s s y * $ I I l C f n 1.",
"4 n I I f L D l I D q D I C n > C C M y $ D @.C f @.@.L f 9 l L ",
"$ * y n y I C C L D l { M M D L [ M , o s [ L n L &.W [ { y M f ",
"y y y C s @.4.I f y n { L M C D L s > f I ( D D I ( M l ( C W q ",
"f n n n n &.&.[ L I I ( L f l D 4 f I @.I ! ..I C n q I I M ( n ",
"n C f C C C C n D ! W D M f D D q @.! W { I ! { L 4 y ( n W n { ",
"L 9 f f 9 C W 9 4 s 9 q n C D q W { D I W [ n C y M L I n W ( W ",
"1.I ( L [ 1.L $ y y q f q 9 s C &.C q n n M D 9 l ..L D I C n y ",
"( M { ;.[ D W L W y s [ [ ( L ( W l q s l y L D W I n ! n 9 C &.",
"9 f C L M C ! I n s I { I l q 4 M 9 s C n s C ( ! ! M n q 9 1.( ",
"n y 4 9 f L l W @.( [ [ n f l 9 W 9 4 l l 4 ! M L L C I I f ! [ ",
"I l , 4 q f > W I l l { n y s 9 ( l , 9 , s I 9 n y q L M y D L ",
"C 9 ! ! s 9 q s s f M s l , X s ! C I L n C @.I s l f 9 4 y ;.( ",
"n s l L C M ( M n y 9 , D f y [ M I D n q n 4.! I I n q f M ( D ",
"C M y M l I ( C f . > D W l W ;.s f n C l M [ q s C I f 4 C ! q ",
"M ;.! I M I l q o $ [ [ C n C @.l q n I n L ( q q D C n L ( D M ",
"C [ D ! s s s * $ W I s C f n 4.( I l l , D ! 9 q D q L ..I , q ",
"D M M s $ D @.D f ..&.W f 9 l C 9 M I W l L D l I D 9 D L C l 9 ",
"..M , $ s ( L M I @.! { [ y C s o * q n q I C C L D l [ D n D D ",
"L f > f L ( L C L { C f ( C I y q y s C s ..7.I f f l { L M C C ",
"> n D @.W I @.L M C 9 D W l { f f M n M n &...[ I W I ( L s n D ",
"4 @.W W ..W ! [ I , q [ C W n [ M C s M C L C M D ! W D n y L W ",
"! ..L L W { n C s n W I n W ! ! I 9 s f 9 C I 9 9 s 4 q M C D 9 ",
";.D y n l C D 9 f [ I C D L n n &.W ( I { >.W o y y 9 f q 9 s n ",
"I l q f l s L C ( I M ( M 4 M @.( M { ;.[ D ! C W y f { { ( L ! ",
"n 9 y C M y D ( W W M n y 9 4.( y s L D n D W W M y I { L l q 4 ",
"! 4 4 n l 4 ! n D W C I D f ! ( n q 4 9 l D s ( &.( [ [ n l l , ",
"@.s > * * s I y C y 9 W D f C L I n $ , s f 4 W I l l { n s f 4 "
};
