/* XPM */
static char *dHJlZQ__[] = {
/* columns rows colors chars-per-pixel */
"16 16 255 2 ",
"   c #15313F",
".  c #14353E",
"X  c #302B3F",
"o  c #5C7C39",
"O  c #0C3845",
"+  c #0A3C47",
"@  c #0F3A4B",
"#  c #153242",
"$  c #123644",
"%  c #153446",
"&  c #163746",
"*  c #1B3E44",
"=  c #173849",
"-  c #143B4A",
";  c #113C4C",
":  c #163D4C",
">  c #193C4F",
",  c #243D44",
"<  c #2A374A",
"1  c #203D4F",
"2  c #393146",
"3  c #492742",
"4  c #0E424F",
"5  c #10404C",
"6  c #18404A",
"7  c #1E404A",
"8  c #1E474B",
"9  c #1C444E",
"0  c #1F474F",
"q  c #18484A",
"w  c #1E4A4D",
"e  c #1A534C",
"r  c #1D4350",
"t  c #1E4355",
"y  c #184A51",
"u  c #1A4C55",
"i  c #1E4F54",
"p  c #1F4F59",
"a  c #1A5253",
"s  c #1E5051",
"d  c #2B464F",
"f  c #245B48",
"g  c #215B4F",
"h  c #204A56",
"j  c #3A4855",
"k  c #215153",
"l  c #285157",
"z  c #2B5D51",
"x  c #2A5D54",
"c  c #29555E",
"v  c #275A5B",
"b  c #265D58",
"n  c #245F59",
"m  c #2B5D5A",
"M  c #285F5A",
"N  c #295A5E",
"B  c #295C5F",
"V  c #3C5B56",
"C  c #30585A",
"Z  c #345A5B",
"A  c #36744D",
"S  c #377C4F",
"D  c #266354",
"F  c #2B6451",
"G  c #24605E",
"H  c #2C655E",
"J  c #2C655F",
"K  c #24685D",
"L  c #2D6E58",
"P  c #296B5F",
"I  c #316A57",
"U  c #30655F",
"Y  c #306E59",
"T  c #35685F",
"R  c #326F5D",
"E  c #297352",
"W  c #2F7457",
"Q  c #377452",
"!  c #3B7C51",
"~  c #3E7A54",
"^  c #3B7E55",
"/  c #3C7D55",
"(  c #38775C",
")  c #3D7C5D",
"_  c #305864",
"`  c #305A68",
"'  c #296160",
"]  c #2A6261",
"[  c #2E6260",
"{  c #2C6262",
"}  c #2C6763",
"|  c #2B6664",
" . c #316561",
".. c #316266",
"X. c #346961",
"o. c #397667",
"O. c #444B5D",
"+. c #664556",
"@. c #664C59",
"#. c #744B5D",
"$. c #466752",
"%. c #416853",
"&. c #477D5D",
"*. c #465761",
"=. c #475764",
"-. c #485160",
";. c #4A5E65",
":. c #435D6C",
">. c #5C5D6F",
",. c #565F70",
"<. c #734D64",
"1. c #7F4961",
"2. c #6E5C6C",
"3. c #735B68",
"4. c #4E6368",
"5. c #5B686E",
"6. c #5E7A6C",
"7. c #5A6875",
"8. c #5F6975",
"9. c #5E6F76",
"0. c #626D6F",
"q. c #707F6A",
"w. c #606D76",
"e. c #666F76",
"r. c #706D78",
"t. c #6D7371",
"y. c #677079",
"u. c #65797A",
"i. c #747472",
"p. c #767074",
"a. c #747C7F",
"s. c #797A7E",
"d. c #7B7A7F",
"f. c #815765",
"g. c #8C5E6B",
"h. c #817C78",
"j. c #5F8D35",
"k. c #5CA339",
"l. c #6EAB22",
"z. c #6EAC25",
"x. c #75A92D",
"c. c #6EA435",
"v. c #61A23E",
"b. c #66A938",
"n. c #6EAD3A",
"m. c #68AE3C",
"M. c #71AF30",
"N. c #7CAD38",
"B. c #34804F",
"V. c #3B814D",
"C. c #3C854D",
"Z. c #388153",
"A. c #398652",
"S. c #338A57",
"D. c #3D8D50",
"F. c #3C8059",
"G. c #3D815C",
"H. c #39865C",
"J. c #3D885F",
"K. c #39945B",
"L. c #3F8964",
"P. c #4F8249",
"I. c #418B4E",
"U. c #4C8F48",
"Y. c #4F924F",
"T. c #449B4A",
"R. c #539940",
"E. c #50964D",
"W. c #549C48",
"Q. c #448A56",
"!. c #42865F",
"~. c #428F59",
"^. c #428B5D",
"/. c #458F5E",
"(. c #429255",
"). c #4E9553",
"_. c #499054",
"`. c #459058",
"'. c #48965A",
"]. c #618942",
"[. c #54A24E",
"{. c #5EA353",
"}. c #478F61",
"|. c #418866",
" X c #488B68",
".X c #469168",
"XX c #618664",
"oX c #757985",
"OX c #7F7A81",
"+X c #7B7B87",
"@X c #7A7D86",
"#X c #857285",
"$X c #7F8583",
"%X c #7A8A80",
"&X c #798289",
"*X c #788888",
"=X c #868080",
"-X c #828186",
";X c #838486",
":X c #8F8383",
">X c #8C8686",
",X c #848887",
"<X c #8B8A86",
"1X c #8C878B",
"2X c #898B88",
"3X c #898A8C",
"4X c #898A8F",
"5X c #8F8B8C",
"6X c #8B8C8E",
"7X c #8C8C8E",
"8X c #928E8D",
"9X c #938F8E",
"0X c #8F948E",
"qX c #92918F",
"wX c #858297",
"eX c #8F8F97",
"rX c #8E8C99",
"tX c #938E94",
"yX c #889291",
"uX c #8F9190",
"iX c #939192",
"pX c #969792",
"aX c #929397",
"sX c #959394",
"dX c #949496",
"fX c #9A9693",
"gX c #989294",
"hX c #989896",
"jX c #9C9897",
"kX c #949399",
"lX c #93969B",
"zX c #9C9698",
"xX c #9E959A",
"cX c #979998",
"vX c #97989D",
"bX c #9B9D9A",
"nX c #999D9C",
"mX c #A19798",
"MX c #A09A9C",
"NX c #A69A9C",
"BX c #9CA89C",
"VX c #A0A19C",
"CX c #A4A09D",
"ZX c #A5A69E",
"AX c #9E9CA1",
"SX c #9B9BA5",
"DX c #AA9DA7",
"FX c #A7A1A1",
"GX c #A8A3A7",
"HX c #A7A0A8",
"JX c #A5A6A8",
"KX c #A7A7AF",
"LX c #A6ABAF",
"PX c #A8A8AA",
"IX c #B2B5AC",
/* pixels */
"hXxX%XXXW.T.b.c.m.l.N.x.o +X=X-X",
"<X@X%.&.).D.Y.E.U.n.z.M.j.q.kXIX",
"9X7.) |.V./. XS.Q.{.k.R.v.].e.nX",
"p.*.L E S }.!.K..XI.[.~._.P.u.0X",
"5X0.s Y ( W A B.A.'.(.H.L.~ 6.lX",
"CXt.t T b G z I C.`.L.^.Z./ $.wX",
"jXa._ x B ' h [ Y F.G.! ^ o.V GX",
"1X8.m F U f ` e [ D ' X.Q g :.FX",
"3X*XZ | K K H q p a n J | v 4.DX",
"mXvX;.m  .H k r = 7 w ..i * 5.aX",
"NXtXy.d w B c : > % r u 6 j tX$X",
"sXd.&X, l w @ @ - ; 4 + # oXAX0X",
"qXJXLX9.. 9 $ = < % O # -.SX6XpX",
"JXgXzX4X9.*.O.2 3 2 5.>.r.-X,XqX",
"7X>X:XMXKXrX2.@.1.<.#XDXtXBXbX3X",
"yXi.h.fXlXOX@.g.1.#.3.hXBXZX9Xs."
};
