/* XPM */
static char *dHJlZQ__[] = {
/* columns rows colors chars-per-pixel */
"32 32 225 2 ",
"   c #091C32",
".  c #0B2B3C",
"X  c #16323E",
"o  c #242D3E",
"O  c #48263F",
"+  c #3D4633",
"@  c #56623A",
"#  c #122E42",
"$  c #0D3C45",
"%  c #143445",
"&  c #123D47",
"*  c #143649",
"=  c #19354A",
"-  c #143C4B",
";  c #1A3D4E",
":  c #1C3244",
">  c #1A3F51",
",  c #222B42",
"<  c #283447",
"1  c #34374A",
"2  c #3D304E",
"3  c #471F42",
"4  c #4B2A47",
"5  c #5A394C",
"6  c #4A3A52",
"7  c #572C4F",
"8  c #643B54",
"9  c #703E5B",
"0  c #0D4147",
"q  c #144346",
"w  c #14424B",
"e  c #19434F",
"r  c #1A4A4D",
"t  c #1C4E45",
"y  c #1E5C4D",
"u  c #1B4351",
"i  c #1D4C52",
"p  c #164851",
"a  c #1D5253",
"s  c #1A5158",
"d  c #2A464A",
"f  c #25564A",
"g  c #234B53",
"h  c #2A4C56",
"j  c #3A4658",
"k  c #225355",
"l  c #295D56",
"z  c #25555A",
"x  c #265B5B",
"c  c #2A5B5D",
"v  c #2A5558",
"b  c #345457",
"n  c #385A58",
"m  c #27674A",
"M  c #36684D",
"N  c #2C6554",
"B  c #27625A",
"V  c #2B645D",
"C  c #2C6A5B",
"Z  c #296753",
"A  c #33695D",
"S  c #2B7258",
"D  c #337654",
"F  c #337C53",
"G  c #397E54",
"H  c #32725C",
"J  c #337B5B",
"K  c #3B785B",
"L  c #2C5D63",
"P  c #275D61",
"I  c #2D6462",
"U  c #2C6861",
"Y  c #2D6768",
"T  c #326462",
"R  c #336865",
"E  c #3E6061",
"W  c #377366",
"Q  c #3C7870",
"!  c #464B5B",
"~  c #554B59",
"^  c #435458",
"/  c #535853",
"(  c #474C4E",
")  c #75485B",
"_  c #674052",
"`  c #48635B",
"'  c #407D56",
"]  c #57605B",
"[  c #69725B",
"{  c #525562",
"}  c #565A67",
"|  c #4E5868",
" . c #784C63",
".. c #765F6D",
"X. c #576665",
"o. c #407060",
"O. c #5D6773",
"+. c #63636C",
"@. c #6C6C6D",
"#. c #666867",
"$. c #73676C",
"%. c #6E716F",
"&. c #6F6971",
"*. c #676A77",
"=. c #736D72",
"-. c #6B7774",
";. c #747474",
":. c #7B7B7A",
">. c #767879",
",. c #79726C",
"<. c #834C65",
"1. c #895467",
"2. c #945A6E",
"3. c #866972",
"4. c #807F7B",
"5. c #74B01C",
"6. c #569A38",
"7. c #549035",
"8. c #6A9337",
"9. c #5FA33C",
"0. c #6DAE2C",
"q. c #62A62F",
"w. c #72AC2C",
"e. c #77AD29",
"r. c #69B128",
"t. c #7CB32C",
"y. c #76B228",
"u. c #6CAA3B",
"i. c #66A835",
"p. c #74AE33",
"a. c #76A839",
"s. c #78B131",
"d. c #62B235",
"f. c #3D934D",
"g. c #3B8555",
"h. c #3D8C54",
"j. c #3B845B",
"k. c #3D8B5A",
"l. c #348556",
"z. c #3A9154",
"x. c #37884E",
"c. c #3E8663",
"v. c #44944B",
"b. c #4D9A47",
"n. c #58934E",
"m. c #589B4A",
"M. c #438C54",
"N. c #43845A",
"B. c #438C5A",
"V. c #478855",
"C. c #439254",
"Z. c #4B9256",
"A. c #4A915A",
"S. c #46935A",
"D. c #569855",
"F. c #42834D",
"G. c #6BA443",
"H. c #428D61",
"J. c #458564",
"K. c #459163",
"L. c #499262",
"P. c #7E807B",
"I. c #80827F",
"U. c #7D7E82",
"Y. c #767984",
"T. c #6F7985",
"R. c #827E83",
"E. c #8D7D88",
"W. c #917E92",
"Q. c #7C8685",
"!. c #848384",
"~. c #858A84",
"^. c #8A8A85",
"/. c #83858A",
"(. c #868B8D",
"). c #8C8C8B",
"_. c #8B858B",
"`. c #918C8C",
"'. c #918788",
"]. c #8C928C",
"[. c #91928D",
"{. c #8C8692",
"}. c #8C8D92",
"|. c #8F8C9A",
" X c #828894",
".X c #928F93",
"XX c #948898",
"oX c #8D9292",
"OX c #939294",
"+X c #9A9495",
"@X c #949A95",
"#X c #9B9A97",
"$X c #969699",
"%X c #9B959A",
"&X c #9C9B9B",
"*X c #969C98",
"=X c #A59999",
"-X c #9DA09C",
";X c #A3A19D",
":X c #9D9CA2",
">X c #8A8CA1",
",X c #A59DA5",
"<X c #9DA4A3",
"1X c #A4A4A4",
"2X c #A9A5A5",
"3X c #AAAAA6",
"4X c #A3A4AA",
"5X c #ACABAD",
"6X c #A4A9A7",
"7X c #B0AFAB",
"8X c #ABB1AA",
"9X c #ADABB1",
"0X c #ABABB9",
"qX c #B2AEB1",
"wX c #ADB2B3",
"eX c #B4B4B4",
"rX c #BCBBBB",
"tX c #B7B5B7",
"yX c #C0B6BF",
"uX c #BBC8B6",
"iX c #C2C1BC",
"pX c #C2C2C3",
"aX c #C9C5C9",
"sX c #CACCC8",
"dX c #CFD0D4",
/* pixels */
";X&X6X<X#X+X:XE D.m.v.i.y.s.w.u.e.u.w.e.y.i.D.5.5.@ XXY.^.#./ :.",
"[.:XOX[.:.>.-.' 9.d.Z.M.6.p.r.9.m.w.t.e.y.p.0.t.a./ *.;.#XR.!.yX",
"!.^._.{.^ d j.z.6.b.K.c.V.m.b.B.B.q.w.i.w.t.t.e.7.O ] #X9X{.2XaX",
"P.,.#XO.b K C.z.Z.h.l.h.C.S.c.K.k.V.n.u.s.e.w.d.w.8.n.~.&X'.@XsX",
"8X2X_.d N.h.h.B.N.C.C.k.C.v.C.C.C.H.Z.0.p.n.6.m.q.t.8.M #.^.}.sX",
"%.OX}.k F h.M.W S M.L.J.H.C.C.j.B.f.v.i.0.m.B.M.Z.0.u.V.^ ;.|.-X",
"+.#./ h V g.N.a S C.B.B.h.h.S.L.B.k.H.A.r.r.L.h.H.m.b.V.^ @.OX!.",
">.4.+.j L C Z W J v.B.B.c.S M.Z.C.S.S.h.D.m.h.l.C.M.S.G ` =X;XU.",
"R.@X).} = v K k.M.B.J R H D V.v.H.C.k.S.k.K.j.F B.g.J ` E.(.tX~.",
"`.).R.+.# q M F x V m D J.j.D C G k.C.C.f.C.M.M.f.M.K M ^ ` (.tX",
"&X:._.| . q W S p B U R N f y y m j.B.S.S.k.B.B.k.' A.G c.` X.0X",
"dX3X;X1 g l N B f T I x $ f J.' j.K.B.k.H.F j.j.Q K F.x.m ^ R.4.",
"4X*X2X{ v T l V x T c V q t H N g.V.g.M.H.l.j.N.S M g.c.f ( =XuX",
"U.P.&X Xg P R x I I s I k q k T Z Z S K j.D G N.l.j.S W g ~ aX3X",
"~.P.$.X.g U V V V x a L L g $ a P L V V B B B H z.c.T s g { wXeX",
"2X~.$.1 c V C V V B C C l R i x c V C I x I V U C B n x d +.:X%X",
"OXP.3X(.b Y I N C C B C V x p z c z T z l V V C C v I Y h { aXwX",
"OX%.).#Xj x U N I U B B V T i e $ w r r c R l C V R a a d >.9XoX",
".X*X:./.^ h I V V V C I I c e $ & e & & k c V V V z i u d +.5X!.",
"}.pX5X1X(.< c R R c C U x i $ - ; - - - - k R c c i * # ! :X#X^.",
"$X5X&X;XR.^ h s z i k V L k > - * - - u * p c i & $ ; < 0X:X*.:.",
"$X&X[.!.+.Y.d e q r i a P z u * - u & * e - w & & - : | 4X:X~.@.",
"tXoX;.] !.Y., $ r c c - & w - - & u * * > - - - - . j 0X`.[.*X%X",
"&X~.#.P.<X_., e - c L & - - - - & * w > - - * - * = | yX=X^.@X$X",
"*.!.;XiX-X6XQ., - p g - > ; - - - - $ ; = = # ; = | :X2X=XQ.^.&X",
">.pX1X2XrX1X<X! % : & u * - - * < 1 < # w -   , : T.5X+X).~.<X2X",
"1XpX@X#X5X9X}. Xj < % % , ; - 2 4 7 2   - % j ! | U.=.!.@X(..X:.",
"sX[.!..X!.&X&X>.XX,X*.T.>X2 1 4 4 7 3 6 >XY.$X#.>.~.>.:.;.!.!.`.",
"#X!.;.R.).~.%X#X5X6XoX4X.X6 O 8 8 ) 9 8 {.,XqX].2X!.:.rXtX<X:X3X",
"[.:.!.@XOX>.OX7X1X6X).+X~ 7 <.2.1.1.1. .5 }.1X3X`.,.3XrX:XoX>.;.",
"3X;.;.!.~.:.eX`.&X2X+X3.5 ) ) 1.2.) 8 ..8 >.(.2XpX5X3X8X^./.).#.",
"rX!.#.@.#.!.&X:.oXU.%.$.) ..).2.) $... .<.$.&.5X4X[.~.rX).~.!.%."
};
